<svg width="47" height="34" viewBox="0 0 47 34" fill="none" xmlns="http://www.w3.org/2000/svg">
<path d="M21.1272 3.79526e-06C21.6395 1.42767 21.2399 2.10664 20.2043 2.78928C15.3356 5.99326 12.7196 9.87622 12.0838 14.64C12.4504 14.8006 12.8266 14.9379 13.2101 15.051C15.3552 15.5221 17.2625 16.7532 18.5868 18.5217C19.9111 20.2902 20.5648 22.4792 20.4296 24.6924C20.2912 26.9642 19.3827 29.1187 17.8569 30.7936C16.3311 32.4685 14.2809 33.5618 12.0511 33.8896C3.86148 34.9906 -0.705667 27.6505 0.0900413 21.0039C1.33992 10.6139 7.74918 4.56927 17.0906 1.18545C18.384 0.719345 19.7356 0.403713 21.1272 3.79526e-06Z" fill="#DE4278"/>
<path d="M37.6601 14.3834C39.5642 15.5113 41.4332 16.2281 42.8129 17.5089C45.7378 20.2233 46.6107 23.7382 45.15 27.5805C43.7421 31.3064 41.0249 33.5005 37.0934 33.9299C29.885 34.7194 26.3759 28.683 26.126 23.8328C25.6614 14.8636 30.0293 8.46336 37.1779 4.03156C39.976 2.29959 43.2177 1.33173 46.2869 3.78292e-06C46.9662 1.60826 46.6635 2.3287 45.6287 2.9982C42.2674 5.18135 39.6945 8.09222 38.2655 11.9746C38.0119 12.7627 37.8097 13.5674 37.6601 14.3834Z" fill="#DE4278"/>
</svg>
