<svg width="27" height="24" viewBox="0 0 27 24" fill="none" xmlns="http://www.w3.org/2000/svg">
<path fill-rule="evenodd" clip-rule="evenodd" d="M7.09176 7.28674C7.34775 6.85376 7.90627 6.71028 8.33925 6.96627L11.9119 9.07849L11.9119 9.0785C12.9372 9.68472 13.4823 9.87532 13.9474 9.87532C14.4125 9.87532 14.9577 9.68472 15.983 9.0785L15.983 9.07849L19.5556 6.96627C19.9886 6.71028 20.5471 6.85376 20.8031 7.28674C21.0591 7.71972 20.9156 8.27825 20.4827 8.53424L16.9101 10.6465C16.9101 10.6465 16.9101 10.6465 16.9101 10.6465C15.8526 11.2717 14.94 11.6968 13.9474 11.6968C12.9549 11.6968 12.0423 11.2717 10.9848 10.6465C10.9848 10.6465 10.9848 10.6465 10.9848 10.6465L7.41223 8.53424C6.97925 8.27825 6.83577 7.71972 7.09176 7.28674Z" fill="#00427C"/>
<path fill-rule="evenodd" clip-rule="evenodd" d="M10.4009 0.811775C12.7725 0.752193 15.121 0.752193 17.4927 0.811787L17.5633 0.813562C19.415 0.860058 20.9049 0.897472 22.099 1.10543C23.3491 1.32315 24.3651 1.74073 25.2235 2.60235C26.0783 3.46037 26.4938 4.46183 26.7073 5.69175C26.9107 6.86294 26.9417 8.3167 26.98 10.1176L26.9815 10.1884C26.9815 10.1884 26.9815 10.1885 26.9815 10.1885C27.0074 11.3983 27.0074 12.6012 26.9815 13.8111C26.9815 13.8111 26.9815 13.8111 26.9815 13.8111L26.98 13.8819C26.9417 15.6828 26.9107 17.1366 26.7073 18.3077C26.4938 19.5376 26.0783 20.5391 25.2235 21.3971C24.3652 22.2588 23.3491 22.6764 22.099 22.8941C20.905 23.102 19.4152 23.1394 17.5637 23.1859L17.4927 23.1877C15.121 23.2473 12.7725 23.2473 10.4009 23.1877L10.3298 23.1859C8.47833 23.1394 6.98851 23.102 5.79451 22.8941C4.54434 22.6764 3.52827 22.2588 2.66989 21.3971C1.81512 20.5391 1.39974 19.5376 1.18616 18.3077C0.9828 17.1367 0.951824 15.6831 0.913452 13.8825L0.911929 13.8111L1.82248 13.7917L0.911929 13.8111C0.886128 12.6012 0.886128 11.3983 0.911929 10.1884L0.913449 10.1171C0.951816 8.3164 0.982789 6.8628 1.18616 5.69172C1.39974 4.46184 1.81513 3.46038 2.66991 2.60236L3.31513 3.24514L2.66991 2.60236C3.52829 1.74071 4.54434 1.32313 5.79451 1.10541C6.9886 0.897449 8.47856 0.86004 10.3302 0.813549L10.4009 0.811775ZM17.4469 2.63272C15.1057 2.5739 12.7878 2.5739 10.4466 2.63271C8.5077 2.68142 7.15286 2.71777 6.10703 2.89991C5.10212 3.07491 4.47556 3.37075 3.96036 3.88791L3.96035 3.88791C3.44156 4.40869 3.15032 5.02728 2.98081 6.00338C2.80376 7.02287 2.77331 8.33829 2.73303 10.2272C2.70778 11.4112 2.70778 12.5882 2.73303 13.7722C2.77331 15.6612 2.80377 16.9766 2.98081 17.9961C3.15032 18.9722 3.44156 19.5908 3.96035 20.1115L3.96037 20.1116C4.47557 20.6287 5.10213 20.9246 6.10702 21.0996C7.15286 21.2817 8.5077 21.318 10.4466 21.3668C12.7878 21.4256 15.1057 21.4256 17.4469 21.3668C19.3858 21.318 20.7406 21.2817 21.7865 21.0996C22.7913 20.9246 23.4179 20.6288 23.933 20.1116L23.9331 20.1115C24.4519 19.5908 24.7432 18.9722 24.9127 17.9961C25.0897 16.9766 25.1202 15.6612 25.1604 13.7723L25.1604 13.7722C25.1858 12.5882 25.1858 11.4112 25.1604 10.2274L25.1604 10.2273C25.1202 8.33834 25.0897 7.0229 24.9127 6.00341C24.7432 5.02731 24.4519 4.40872 23.9331 3.88795L23.9331 3.88792C23.4179 3.37076 22.7913 3.07493 21.7865 2.89993C20.7406 2.71779 19.3858 2.68144 17.4469 2.63272Z" fill="#00427C"/>
</svg>
