<svg width="70" height="70" viewBox="0 0 70 70" fill="none" xmlns="http://www.w3.org/2000/svg">
<rect width="70" height="70" rx="6" fill="#00427C"/>
<path d="M10 0V70" stroke="white" stroke-opacity="0.4"/>
<path d="M60 0V70" stroke="white" stroke-opacity="0.4"/>
<path d="M50.9993 23.2675H37.1331V20.0676C37.1331 19.7497 36.9923 19.4489 36.7469 19.2463C36.5037 19.0436 36.1774 18.9562 35.8702 19.0201L18.804 22.2201C18.2984 22.3139 17.9336 22.7534 17.9336 23.2675V46.7335C17.9336 47.2455 18.2984 47.6871 18.804 47.781L35.8702 50.9809C35.9342 50.9937 36.0003 51.0001 36.0664 51.0001C36.3139 51.0001 36.5549 50.9147 36.7469 50.7547C36.9923 50.5521 37.1331 50.2491 37.1331 49.9334V46.7335H50.9993C51.5881 46.7335 52.066 46.2557 52.066 45.6669V24.3341C52.066 23.7454 51.5881 23.2675 50.9993 23.2675ZM32.602 38.5652C32.9902 39.0068 32.9454 39.6809 32.5017 40.0692C32.2991 40.2462 32.0495 40.3337 31.7999 40.3337C31.5034 40.3337 31.209 40.21 30.9978 39.9689L27.896 36.4255L25.1761 39.9241C24.9649 40.1929 24.6491 40.3337 24.3334 40.3337C24.1052 40.3337 23.8748 40.2612 23.6785 40.1097C23.2134 39.747 23.1302 39.0772 23.4908 38.6121L26.4646 34.7893L23.5313 31.4358C23.143 30.9942 23.1878 30.3201 23.6316 29.9318C24.0732 29.5436 24.7451 29.5863 25.1377 30.0321L27.8 33.0742L30.9594 29.0124C31.322 28.5495 31.9919 28.4642 32.4569 28.8268C32.922 29.1873 33.0052 29.8572 32.6425 30.3244L29.2293 34.7104L32.602 38.5652ZM49.9327 44.6002H37.1331V42.467H40.333C40.9218 42.467 41.3996 41.9891 41.3996 41.4003C41.3996 40.8115 40.9218 40.3337 40.333 40.3337H37.1331V38.2004H40.333C40.9218 38.2004 41.3996 37.7226 41.3996 37.1338C41.3996 36.545 40.9218 36.0671 40.333 36.0671H37.1331V33.9339H40.333C40.9218 33.9339 41.3996 33.456 41.3996 32.8672C41.3996 32.2784 40.9218 31.8006 40.333 31.8006H37.1331V29.6673H40.333C40.9218 29.6673 41.3996 29.1895 41.3996 28.6007C41.3996 28.0119 40.9218 27.534 40.333 27.534H37.1331V25.4008H49.9327V44.6002Z" fill="white"/>
<path d="M46.7331 27.5342H44.5998C44.0111 27.5342 43.5332 28.012 43.5332 28.6008C43.5332 29.1896 44.0111 29.6675 44.5998 29.6675H46.7331C47.3219 29.6675 47.7998 29.1896 47.7998 28.6008C47.7998 28.012 47.3219 27.5342 46.7331 27.5342Z" fill="white"/>
<path d="M46.7331 31.8005H44.5998C44.0111 31.8005 43.5332 32.2784 43.5332 32.8672C43.5332 33.456 44.0111 33.9338 44.5998 33.9338H46.7331C47.3219 33.9338 47.7998 33.456 47.7998 32.8672C47.7998 32.2784 47.3219 31.8005 46.7331 31.8005Z" fill="white"/>
<path d="M46.7331 36.0671H44.5998C44.0111 36.0671 43.5332 36.545 43.5332 37.1338C43.5332 37.7226 44.0111 38.2004 44.5998 38.2004H46.7331C47.3219 38.2004 47.7998 37.7226 47.7998 37.1338C47.7998 36.545 47.3219 36.0671 46.7331 36.0671Z" fill="white"/>
<path d="M46.7331 40.3337H44.5998C44.0111 40.3337 43.5332 40.8116 43.5332 41.4004C43.5332 41.9892 44.0111 42.467 44.5998 42.467H46.7331C47.3219 42.467 47.7998 41.9892 47.7998 41.4004C47.7998 40.8116 47.3219 40.3337 46.7331 40.3337Z" fill="white"/>
<path d="M70 10L0 10" stroke="white" stroke-opacity="0.4"/>
<path d="M70 60L0 60" stroke="white" stroke-opacity="0.4"/>
</svg>
