<svg width="70" height="70" viewBox="0 0 70 70" fill="none" xmlns="http://www.w3.org/2000/svg">
<rect width="70" height="70" rx="6" fill="#00427C"/>
<path d="M10 0V70" stroke="white" stroke-opacity="0.4"/>
<path d="M60 0V70" stroke="white" stroke-opacity="0.4"/>
<path d="M31.3872 38.7365C31.5485 38.7924 31.6789 38.8979 31.7534 39.0344L34.4534 43.9876C34.5651 44.1862 34.7699 44.3103 34.9996 44.3103C35.2292 44.3103 35.4341 44.1862 35.5458 43.9876L38.2458 39.0344C38.3203 38.8979 38.4506 38.7924 38.612 38.7365C43.1307 37.1972 46.1721 32.9454 46.1721 28.1723C46.1721 24.9944 44.8127 21.9592 42.4417 19.8426C40.0396 17.695 36.9362 16.7081 33.7085 17.0743C28.6623 17.6392 24.5471 21.7047 23.914 26.7385C23.2499 32.0765 26.3223 37.011 31.3872 38.7365ZM34.9996 23.2068C37.7368 23.2068 39.9651 25.4351 39.9651 28.1723C39.9651 30.9096 37.7368 33.1379 34.9996 33.1379C32.2623 33.1379 30.034 30.9096 30.034 28.1723C30.034 25.4351 32.2623 23.2068 34.9996 23.2068Z" fill="white"/>
<path d="M47.4132 45.5516C45.5697 45.5516 44.0366 46.8923 43.7449 48.6551H38.6676C38.3759 46.8923 36.8428 45.5516 34.9993 45.5516C33.1559 45.5516 31.6228 46.8923 31.331 48.6551H26.2538C25.9621 46.8923 24.4289 45.5516 22.5855 45.5516C20.531 45.5516 18.8613 47.2213 18.8613 49.2758C18.8613 51.3303 20.531 52.9999 22.5855 52.9999C24.4289 52.9999 25.9621 51.6593 26.2538 49.8965H31.331C31.6228 51.6593 33.1559 52.9999 34.9993 52.9999C36.8428 52.9999 38.3759 51.6593 38.6676 49.8965H43.7449C44.0366 51.6593 45.5697 52.9999 47.4132 52.9999C49.4677 52.9999 51.1374 51.3303 51.1374 49.2758C51.1374 47.2213 49.4677 45.5516 47.4132 45.5516ZM22.5855 51.7586C21.2138 51.7586 20.1027 50.6475 20.1027 49.2758C20.1027 47.9041 21.2138 46.793 22.5855 46.793C23.9572 46.793 25.0683 47.9041 25.0683 49.2758C25.0683 50.6475 23.9572 51.7586 22.5855 51.7586ZM34.9993 51.7586C33.6276 51.7586 32.5166 50.6475 32.5166 49.2758C32.5166 47.9041 33.6276 46.793 34.9993 46.793C36.3711 46.793 37.4821 47.9041 37.4821 49.2758C37.4821 50.6475 36.3711 51.7586 34.9993 51.7586ZM47.4132 51.7586C46.0415 51.7586 44.9304 50.6475 44.9304 49.2758C44.9304 47.9041 46.0415 46.793 47.4132 46.793C48.7849 46.793 49.896 47.9041 49.896 49.2758C49.896 50.6475 48.7849 51.7586 47.4132 51.7586Z" fill="white"/>
<path d="M70 10L0 10" stroke="white" stroke-opacity="0.4"/>
<path d="M70 60L0 60" stroke="white" stroke-opacity="0.4"/>
</svg>
