<svg width="103" height="238" viewBox="0 0 103 238" fill="none" xmlns="http://www.w3.org/2000/svg">
<path d="M95.2311 235.477C97.1516 235.477 98.7084 233.921 98.7084 232C98.7084 230.08 97.1516 228.523 95.2311 228.523C93.3107 228.523 91.7539 230.08 91.7539 232C91.7539 233.921 93.3107 235.477 95.2311 235.477Z" fill="url(#paint0_linear_180_911)"/>
<path d="M83.571 232.409C85.4914 232.409 87.0482 230.852 87.0482 228.932C87.0482 227.011 85.4914 225.455 83.571 225.455C81.6506 225.455 80.0938 227.011 80.0938 228.932C80.0938 230.852 81.6506 232.409 83.571 232.409Z" fill="url(#paint1_linear_180_911)"/>
<path d="M72.2546 228.046C74.175 228.046 75.7318 226.489 75.7318 224.568C75.7318 222.648 74.175 221.091 72.2546 221.091C70.3342 221.091 68.7773 222.648 68.7773 224.568C68.7773 226.489 70.3342 228.046 72.2546 228.046Z" fill="url(#paint2_linear_180_911)"/>
<path d="M61.5495 222.591C63.4699 222.591 65.0267 221.034 65.0267 219.114C65.0267 217.193 63.4699 215.637 61.5495 215.637C59.6291 215.637 58.0723 217.193 58.0723 219.114C58.0723 221.034 59.6291 222.591 61.5495 222.591Z" fill="url(#paint3_linear_180_911)"/>
<path d="M51.3893 215.978C53.3098 215.978 54.8666 214.421 54.8666 212.5C54.8666 210.58 53.3098 209.023 51.3893 209.023C49.4689 209.023 47.9121 210.58 47.9121 212.5C47.9121 214.421 49.4689 215.978 51.3893 215.978Z" fill="url(#paint4_linear_180_911)"/>
<path d="M41.9811 208.41C43.9015 208.41 45.4584 206.853 45.4584 204.932C45.4584 203.012 43.9015 201.455 41.9811 201.455C40.0607 201.455 38.5039 203.012 38.5039 204.932C38.5039 206.853 40.0607 208.41 41.9811 208.41Z" fill="url(#paint5_linear_180_911)"/>
<path d="M33.4596 199.887C35.3801 199.887 36.9369 198.33 36.9369 196.41C36.9369 194.489 35.3801 192.932 33.4596 192.932C31.5392 192.932 29.9824 194.489 29.9824 196.41C29.9824 198.33 31.5392 199.887 33.4596 199.887Z" fill="url(#paint6_linear_180_911)"/>
<path d="M25.8893 190.478C27.8098 190.478 29.3666 188.921 29.3666 187.001C29.3666 185.08 27.8098 183.523 25.8893 183.523C23.9689 183.523 22.4121 185.08 22.4121 187.001C22.4121 188.921 23.9689 190.478 25.8893 190.478Z" fill="url(#paint7_linear_180_911)"/>
<path d="M19.278 180.319C21.1984 180.319 22.7552 178.762 22.7552 176.842C22.7552 174.921 21.1984 173.365 19.278 173.365C17.3576 173.365 15.8008 174.921 15.8008 176.842C15.8008 178.762 17.3576 180.319 19.278 180.319Z" fill="url(#paint8_linear_180_911)"/>
<path d="M13.8229 169.615C15.7433 169.615 17.3002 168.058 17.3002 166.137C17.3002 164.217 15.7433 162.66 13.8229 162.66C11.9025 162.66 10.3457 164.217 10.3457 166.137C10.3457 168.058 11.9025 169.615 13.8229 169.615Z" fill="url(#paint9_linear_180_911)"/>
<path d="M9.45769 158.296C11.3781 158.296 12.9349 156.74 12.9349 154.819C12.9349 152.899 11.3781 151.342 9.45769 151.342C7.53728 151.342 5.98047 152.899 5.98047 154.819C5.98047 156.74 7.53728 158.296 9.45769 158.296Z" fill="url(#paint10_linear_180_911)"/>
<path d="M6.38933 146.638C8.30975 146.638 9.86656 145.081 9.86656 143.16C9.86656 141.24 8.30975 139.683 6.38933 139.683C4.46892 139.683 2.91211 141.24 2.91211 143.16C2.91211 145.081 4.46892 146.638 6.38933 146.638Z" fill="url(#paint11_linear_180_911)"/>
<path d="M4.47918 134.706C6.3996 134.706 7.9564 133.149 7.9564 131.229C7.9564 129.308 6.3996 127.752 4.47918 127.752C2.55876 127.752 1.00195 129.308 1.00195 131.229C1.00195 133.149 2.55876 134.706 4.47918 134.706Z" fill="url(#paint12_linear_180_911)"/>
<path d="M3.86785 122.706C5.78827 122.706 7.34508 121.149 7.34508 119.229C7.34508 117.308 5.78827 115.752 3.86785 115.752C1.94743 115.752 0.390625 117.308 0.390625 119.229C0.390625 121.149 1.94743 122.706 3.86785 122.706Z" fill="url(#paint13_linear_180_911)"/>
<path d="M4.47918 110.638C6.3996 110.638 7.9564 109.081 7.9564 107.161C7.9564 105.24 6.3996 103.684 4.47918 103.684C2.55876 103.684 1.00195 105.24 1.00195 107.161C1.00195 109.081 2.55876 110.638 4.47918 110.638Z" fill="url(#paint14_linear_180_911)"/>
<path d="M6.38933 98.7065C8.30975 98.7065 9.86656 97.1497 9.86656 95.2293C9.86656 93.3089 8.30975 91.7521 6.38933 91.7521C4.46892 91.7521 2.91211 93.3089 2.91211 95.2293C2.91211 97.1497 4.46892 98.7065 6.38933 98.7065Z" fill="url(#paint15_linear_180_911)"/>
<path d="M9.45769 87.0476C11.3781 87.0476 12.9349 85.4908 12.9349 83.5704C12.9349 81.6499 11.3781 80.0931 9.45769 80.0931C7.53728 80.0931 5.98047 81.6499 5.98047 83.5704C5.98047 85.4908 7.53728 87.0476 9.45769 87.0476Z" fill="url(#paint16_linear_180_911)"/>
<path d="M13.8229 75.7295C15.7433 75.7295 17.3002 74.1727 17.3002 72.2523C17.3002 70.3319 15.7433 68.7751 13.8229 68.7751C11.9025 68.7751 10.3457 70.3319 10.3457 72.2523C10.3457 74.1727 11.9025 75.7295 13.8229 75.7295Z" fill="url(#paint17_linear_180_911)"/>
<path d="M19.278 65.0251C21.1984 65.0251 22.7552 63.4683 22.7552 61.5478C22.7552 59.6274 21.1984 58.0706 19.278 58.0706C17.3576 58.0706 15.8008 59.6274 15.8008 61.5478C15.8008 63.4683 17.3576 65.0251 19.278 65.0251Z" fill="url(#paint18_linear_180_911)"/>
<path d="M25.8893 54.8662C27.8098 54.8662 29.3666 53.3094 29.3666 51.389C29.3666 49.4686 27.8098 47.9117 25.8893 47.9117C23.9689 47.9117 22.4121 49.4686 22.4121 51.389C22.4121 53.3094 23.9689 54.8662 25.8893 54.8662Z" fill="url(#paint19_linear_180_911)"/>
<path d="M33.4596 45.4572C35.3801 45.4572 36.9369 43.9004 36.9369 41.98C36.9369 40.0596 35.3801 38.5027 33.4596 38.5027C31.5392 38.5027 29.9824 40.0596 29.9824 41.98C29.9824 43.9004 31.5392 45.4572 33.4596 45.4572Z" fill="url(#paint20_linear_180_911)"/>
<path d="M41.9811 36.9346C43.9015 36.9346 45.4584 35.3778 45.4584 33.4574C45.4584 31.537 43.9015 29.9802 41.9811 29.9802C40.0607 29.9802 38.5039 31.537 38.5039 33.4574C38.5039 35.3778 40.0607 36.9346 41.9811 36.9346Z" fill="url(#paint21_linear_180_911)"/>
<path d="M51.3893 29.3665C53.3098 29.3665 54.8666 27.8097 54.8666 25.8893C54.8666 23.9689 53.3098 22.412 51.3893 22.412C49.4689 22.412 47.9121 23.9689 47.9121 25.8893C47.9121 27.8097 49.4689 29.3665 51.3893 29.3665Z" fill="url(#paint22_linear_180_911)"/>
<path d="M61.5495 22.7529C63.4699 22.7529 65.0267 21.1961 65.0267 19.2757C65.0267 17.3553 63.4699 15.7985 61.5495 15.7985C59.6291 15.7985 58.0723 17.3553 58.0723 19.2757C58.0723 21.1961 59.6291 22.7529 61.5495 22.7529Z" fill="url(#paint23_linear_180_911)"/>
<path d="M72.2546 17.2985C74.175 17.2985 75.7318 15.7417 75.7318 13.8213C75.7318 11.9009 74.175 10.3441 72.2546 10.3441C70.3342 10.3441 68.7773 11.9009 68.7773 13.8213C68.7773 15.7417 70.3342 17.2985 72.2546 17.2985Z" fill="url(#paint24_linear_180_911)"/>
<path d="M83.571 12.935C85.4914 12.935 87.0482 11.3782 87.0482 9.45776C87.0482 7.53734 85.4914 5.98053 83.571 5.98053C81.6506 5.98053 80.0938 7.53734 80.0938 9.45776C80.0938 11.3782 81.6506 12.935 83.571 12.935Z" fill="url(#paint25_linear_180_911)"/>
<path d="M95.2311 9.86674C97.1516 9.86674 98.7084 8.30994 98.7084 6.38952C98.7084 4.4691 97.1516 2.91229 95.2311 2.91229C93.3107 2.91229 91.7539 4.4691 91.7539 6.38952C91.7539 8.30994 93.3107 9.86674 95.2311 9.86674Z" fill="url(#paint26_linear_180_911)"/>
<defs>
<linearGradient id="paint0_linear_180_911" x1="95.2311" y1="248.023" x2="95.2311" y2="-5.47393" gradientUnits="userSpaceOnUse">
<stop stop-color="#00B6EF"/>
<stop offset="1" stop-color="#E04C7F"/>
</linearGradient>
<linearGradient id="paint1_linear_180_911" x1="83.571" y1="248.023" x2="83.571" y2="-5.47409" gradientUnits="userSpaceOnUse">
<stop stop-color="#00B6EF"/>
<stop offset="1" stop-color="#E04C7F"/>
</linearGradient>
<linearGradient id="paint2_linear_180_911" x1="72.2546" y1="248.023" x2="72.2546" y2="-5.47398" gradientUnits="userSpaceOnUse">
<stop stop-color="#00B6EF"/>
<stop offset="1" stop-color="#E04C7F"/>
</linearGradient>
<linearGradient id="paint3_linear_180_911" x1="61.5495" y1="248.023" x2="61.5495" y2="-5.47403" gradientUnits="userSpaceOnUse">
<stop stop-color="#00B6EF"/>
<stop offset="1" stop-color="#E04C7F"/>
</linearGradient>
<linearGradient id="paint4_linear_180_911" x1="51.3893" y1="248.023" x2="51.3893" y2="-5.47395" gradientUnits="userSpaceOnUse">
<stop stop-color="#00B6EF"/>
<stop offset="1" stop-color="#E04C7F"/>
</linearGradient>
<linearGradient id="paint5_linear_180_911" x1="41.9811" y1="248.023" x2="41.9811" y2="-5.47392" gradientUnits="userSpaceOnUse">
<stop stop-color="#00B6EF"/>
<stop offset="1" stop-color="#E04C7F"/>
</linearGradient>
<linearGradient id="paint6_linear_180_911" x1="33.4596" y1="248.023" x2="33.4596" y2="-5.47395" gradientUnits="userSpaceOnUse">
<stop stop-color="#00B6EF"/>
<stop offset="1" stop-color="#E04C7F"/>
</linearGradient>
<linearGradient id="paint7_linear_180_911" x1="25.8893" y1="248.022" x2="25.8893" y2="-5.4737" gradientUnits="userSpaceOnUse">
<stop stop-color="#00B6EF"/>
<stop offset="1" stop-color="#E04C7F"/>
</linearGradient>
<linearGradient id="paint8_linear_180_911" x1="19.278" y1="248.023" x2="19.278" y2="-5.47364" gradientUnits="userSpaceOnUse">
<stop stop-color="#00B6EF"/>
<stop offset="1" stop-color="#E04C7F"/>
</linearGradient>
<linearGradient id="paint9_linear_180_911" x1="13.8229" y1="248.023" x2="13.8229" y2="-5.47403" gradientUnits="userSpaceOnUse">
<stop stop-color="#00B6EF"/>
<stop offset="1" stop-color="#E04C7F"/>
</linearGradient>
<linearGradient id="paint10_linear_180_911" x1="9.45769" y1="248.023" x2="9.45769" y2="-5.47406" gradientUnits="userSpaceOnUse">
<stop stop-color="#00B6EF"/>
<stop offset="1" stop-color="#E04C7F"/>
</linearGradient>
<linearGradient id="paint11_linear_180_911" x1="6.38934" y1="248.023" x2="6.38934" y2="-5.47399" gradientUnits="userSpaceOnUse">
<stop stop-color="#00B6EF"/>
<stop offset="1" stop-color="#E04C7F"/>
</linearGradient>
<linearGradient id="paint12_linear_180_911" x1="4.47918" y1="248.023" x2="4.47918" y2="-5.47397" gradientUnits="userSpaceOnUse">
<stop stop-color="#00B6EF"/>
<stop offset="1" stop-color="#E04C7F"/>
</linearGradient>
<linearGradient id="paint13_linear_180_911" x1="3.86785" y1="248.023" x2="3.86785" y2="-5.47401" gradientUnits="userSpaceOnUse">
<stop stop-color="#00B6EF"/>
<stop offset="1" stop-color="#E04C7F"/>
</linearGradient>
<linearGradient id="paint14_linear_180_911" x1="4.47918" y1="248.023" x2="4.47918" y2="-5.47404" gradientUnits="userSpaceOnUse">
<stop stop-color="#00B6EF"/>
<stop offset="1" stop-color="#E04C7F"/>
</linearGradient>
<linearGradient id="paint15_linear_180_911" x1="6.38934" y1="248.023" x2="6.38934" y2="-5.47391" gradientUnits="userSpaceOnUse">
<stop stop-color="#00B6EF"/>
<stop offset="1" stop-color="#E04C7F"/>
</linearGradient>
<linearGradient id="paint16_linear_180_911" x1="9.45769" y1="248.023" x2="9.45769" y2="-5.4739" gradientUnits="userSpaceOnUse">
<stop stop-color="#00B6EF"/>
<stop offset="1" stop-color="#E04C7F"/>
</linearGradient>
<linearGradient id="paint17_linear_180_911" x1="13.8229" y1="248.023" x2="13.8229" y2="-5.47393" gradientUnits="userSpaceOnUse">
<stop stop-color="#00B6EF"/>
<stop offset="1" stop-color="#E04C7F"/>
</linearGradient>
<linearGradient id="paint18_linear_180_911" x1="19.278" y1="248.022" x2="19.278" y2="-5.47393" gradientUnits="userSpaceOnUse">
<stop stop-color="#00B6EF"/>
<stop offset="1" stop-color="#E04C7F"/>
</linearGradient>
<linearGradient id="paint19_linear_180_911" x1="25.8893" y1="248.023" x2="25.8893" y2="-5.47389" gradientUnits="userSpaceOnUse">
<stop stop-color="#00B6EF"/>
<stop offset="1" stop-color="#E04C7F"/>
</linearGradient>
<linearGradient id="paint20_linear_180_911" x1="33.4596" y1="248.023" x2="33.4596" y2="-5.47393" gradientUnits="userSpaceOnUse">
<stop stop-color="#00B6EF"/>
<stop offset="1" stop-color="#E04C7F"/>
</linearGradient>
<linearGradient id="paint21_linear_180_911" x1="41.9811" y1="248.023" x2="41.9811" y2="-5.4739" gradientUnits="userSpaceOnUse">
<stop stop-color="#00B6EF"/>
<stop offset="1" stop-color="#E04C7F"/>
</linearGradient>
<linearGradient id="paint22_linear_180_911" x1="51.3893" y1="248.023" x2="51.3893" y2="-5.47393" gradientUnits="userSpaceOnUse">
<stop stop-color="#00B6EF"/>
<stop offset="1" stop-color="#E04C7F"/>
</linearGradient>
<linearGradient id="paint23_linear_180_911" x1="61.5495" y1="248.023" x2="61.5495" y2="-5.47397" gradientUnits="userSpaceOnUse">
<stop stop-color="#00B6EF"/>
<stop offset="1" stop-color="#E04C7F"/>
</linearGradient>
<linearGradient id="paint24_linear_180_911" x1="72.2546" y1="248.023" x2="72.2546" y2="-5.47391" gradientUnits="userSpaceOnUse">
<stop stop-color="#00B6EF"/>
<stop offset="1" stop-color="#E04C7F"/>
</linearGradient>
<linearGradient id="paint25_linear_180_911" x1="83.571" y1="248.023" x2="83.571" y2="-5.47385" gradientUnits="userSpaceOnUse">
<stop stop-color="#00B6EF"/>
<stop offset="1" stop-color="#E04C7F"/>
</linearGradient>
<linearGradient id="paint26_linear_180_911" x1="95.2311" y1="248.023" x2="95.2311" y2="-5.47396" gradientUnits="userSpaceOnUse">
<stop stop-color="#00B6EF"/>
<stop offset="1" stop-color="#E04C7F"/>
</linearGradient>
</defs>
</svg>
