<svg width="174" height="93" viewBox="0 0 174 93" fill="none" xmlns="http://www.w3.org/2000/svg">
<rect width="173.59" height="92.8672" rx="6" fill="white"/>
<path fill-rule="evenodd" clip-rule="evenodd" d="M137.428 33.4028C137.679 34.0822 137.762 34.6773 137.845 35.1019C137.93 35.5265 137.93 35.9511 138.014 36.2908C138.124 35.8721 138.293 35.4717 138.516 35.1019C138.684 34.6773 139.018 34.0822 139.437 33.4028L150.071 17.8591H158.276L141.362 40.6223L147.308 53.7027H139.186L137.176 47.5022C137.01 47.0768 136.925 46.5681 136.759 46.0586C136.759 45.6332 136.674 45.1237 136.674 44.6142C136.423 45.1237 136.256 45.6332 136.005 46.0586C135.753 46.5681 135.502 47.0776 135.251 47.5022L131.233 53.7027H123.195L133.409 40.6223L128.47 29.2403H136.257L137.428 33.4028Z" fill="black"/>
<path fill-rule="evenodd" clip-rule="evenodd" d="M124.96 29.1291L120.805 53.5327H114.107L114.785 49.5497C113.598 51.244 112.241 52.5162 110.97 53.2786C109.612 54.041 108.171 54.4646 106.475 54.4646C103.761 54.4646 101.727 53.2786 100.54 50.9059C99.2667 48.5331 99.0124 45.3125 99.6914 41.3302C100.37 37.3471 101.727 34.2127 103.847 31.8399C105.967 29.5519 108.51 28.3651 111.477 28.3651C113.005 28.3651 114.276 28.704 115.293 29.5519C116.225 30.3143 116.988 31.5011 117.582 33.1106L118.26 29.1283L124.96 29.1291ZM116.481 41.3309C116.821 39.3825 116.651 37.8569 115.972 36.7548C115.294 35.6536 114.192 35.1453 112.75 35.1453C111.224 35.1453 109.953 35.6536 108.934 36.7548C107.917 37.8569 107.239 39.3825 106.9 41.3309C106.56 43.1954 106.73 44.7202 107.408 45.8215C108.087 46.8396 109.189 47.4318 110.63 47.4318C112.072 47.4318 113.344 46.8396 114.447 45.8215C115.465 44.7202 116.143 43.1946 116.481 41.3309ZM79.937 53.5327H87.1439L88.9248 43.4488C89.2632 41.076 90.1116 39.297 91.2991 37.9408C92.4859 36.6694 93.9278 36.0764 95.7072 36.0764C96.1318 36.0764 96.4716 36.0764 96.8955 36.1611C97.3186 36.2458 97.7424 36.4152 98.167 36.5847L100.201 28.704C99.8632 28.704 99.6089 28.6193 99.269 28.6193H98.4221C96.7267 28.6193 95.1153 29.1275 93.6742 30.1449C92.3171 31.2462 91.0456 32.7718 90.0276 34.8896L90.9601 29.1275H84.0922L79.937 53.5327ZM63.4023 53.5327H71.5425L76.2063 25.0613H137.764L141.75 18.1132H37.0329L35.591 25.0613H67.9814L63.4023 53.5327ZM31.1822 53.5327L35.3367 29.1291H42.0358L41.1873 34.0432C42.4589 32.0948 43.8159 30.6547 45.2578 29.7221C46.6989 28.7902 48.3103 28.3659 50.0904 28.3659C51.4467 28.3659 52.5503 28.62 53.482 29.1291C54.5 29.6373 55.1781 30.3151 55.6867 31.3324C56.1106 32.0948 56.2801 33.1121 56.3649 34.2981C56.3649 35.4841 56.1954 37.2639 55.7715 39.5519L53.3972 53.5335H46.1055L48.3103 40.4845C48.6493 38.5353 48.6493 37.0952 48.2255 36.2473C47.8864 35.3155 47.0387 34.8919 45.8512 34.8919C44.3246 34.8919 43.1378 35.5696 42.2053 36.8411C41.2729 38.1965 40.5947 40.3151 40.0861 43.2808L38.3059 53.5343H31.1822V53.5327ZM22.9573 25.0613L24.4839 17.8591H31.7756L30.3338 25.0613H22.9573ZM18.2934 53.5327L22.4487 29.1291H29.7404L25.5859 53.5327H18.2934ZM17.0226 72.5987L18.379 72.5132C18.379 72.8528 18.4637 73.0215 18.718 73.1909C18.8876 73.3611 19.2267 73.4451 19.6505 73.4451C20.0743 73.4451 20.4134 73.3611 20.6685 73.2749C20.9228 73.1062 21.0076 72.9368 21.0923 72.7666C21.0923 72.6827 21.0923 72.5979 21.0076 72.5125C20.9236 72.4285 20.7533 72.3423 20.5837 72.2583C20.4134 72.2583 20.0743 72.1744 19.5657 72.0881C18.8876 71.9195 18.379 71.75 18.1239 71.5799C17.7848 71.3257 17.7 70.9876 17.7848 70.648C17.8696 70.3939 18.0391 70.1397 18.2934 69.9703C18.4637 69.7161 18.802 69.5475 19.2259 69.462C19.565 69.2933 20.0736 69.2933 20.583 69.2933C21.3459 69.2933 21.9393 69.3773 22.3639 69.6314C22.703 69.9695 22.7877 70.3092 22.703 70.7335H21.3467C21.3467 70.4793 21.3467 70.3092 21.1771 70.2252C21.0076 70.1397 20.6685 70.055 20.3294 70.055C19.9056 70.055 19.6513 70.139 19.3962 70.2252C19.2449 70.2913 19.124 70.4121 19.0579 70.5633C19.0579 70.6473 19.0579 70.7335 19.2274 70.8174C19.3969 70.9876 19.736 71.0716 20.3302 71.1555C21.0083 71.241 21.4322 71.4112 21.6865 71.4951C22.0256 71.6653 22.1951 71.7493 22.3646 72.0034C22.4494 72.1736 22.4494 72.4278 22.4494 72.7659C22.3646 73.02 22.1951 73.2741 21.9408 73.5283C21.6017 73.7839 21.2626 73.9526 20.9236 74.0381C20.499 74.2068 19.9903 74.2922 19.3962 74.2922C18.5492 74.2922 17.9551 74.122 17.5313 73.8679C17.1914 73.529 17.0226 73.107 17.0226 72.5987ZM24.3991 69.378H25.7554L25.0765 72.0049C24.9918 72.343 24.907 72.6827 24.907 72.7674C24.907 72.9376 24.9918 73.107 25.2461 73.2757C25.4156 73.3611 25.6707 73.4458 26.0938 73.4458C26.4328 73.4458 26.7719 73.3619 26.9415 73.2757C27.1958 73.107 27.3661 73.0215 27.4508 72.8528C27.5356 72.6827 27.6204 72.4285 27.7051 72.0049L28.2985 69.378H29.6556L29.0622 71.9202C28.8919 72.4285 28.8079 72.8521 28.6376 73.1062C28.5528 73.3604 28.2985 73.529 28.129 73.6985C27.8754 73.8687 27.5356 74.0381 27.1965 74.1228C26.8574 74.2075 26.4336 74.293 25.925 74.293C25.439 74.2998 24.9542 74.2426 24.4831 74.1228C24.2288 73.9526 23.9745 73.8687 23.805 73.6985C23.6347 73.5283 23.6347 73.3604 23.5507 73.1062C23.5507 72.8521 23.6354 72.4285 23.721 71.9202L24.3991 69.378ZM29.9099 72.5987L31.267 72.5132C31.267 72.8528 31.3518 73.0215 31.6061 73.1909C31.7756 73.3611 32.1147 73.4451 32.5385 73.4451C32.9624 73.4451 33.3015 73.3611 33.5558 73.2749C33.8101 73.1062 33.8949 72.9368 33.9796 72.7666C33.9796 72.6827 33.9796 72.5979 33.8949 72.5125C33.8101 72.4285 33.7253 72.3423 33.4702 72.2583C33.3007 72.2583 32.9616 72.1744 32.453 72.0881C31.7749 71.9195 31.2662 71.75 31.0967 71.5799C30.6721 71.3257 30.5873 70.9876 30.6721 70.648C30.7569 70.3939 30.9264 70.1397 31.0967 69.9703C31.351 69.7161 31.6893 69.5475 32.1139 69.462C32.453 69.2933 32.8769 69.2933 33.4702 69.2933C34.2339 69.2933 34.8273 69.3773 35.2512 69.6314C35.5903 69.9695 35.675 70.3092 35.5903 70.7335H34.2339C34.2339 70.4793 34.1492 70.3092 34.0644 70.2252C33.8949 70.1397 33.5558 70.055 33.2167 70.055C32.7928 70.055 32.5385 70.139 32.2835 70.2252C32.1319 70.2913 32.0109 70.412 31.9444 70.5633C31.9444 70.6473 31.9444 70.7335 32.1147 70.8174C32.2842 70.9876 32.6241 71.0716 33.2175 71.1555C33.8956 71.241 34.3195 71.4112 34.6593 71.4951C34.9136 71.6653 35.0831 71.7493 35.2527 72.0034C35.3375 72.1736 35.4222 72.4278 35.3375 72.7659C35.2527 73.02 35.0831 73.2741 34.8288 73.5283C34.4898 73.7839 34.1507 73.9526 33.8108 74.0381C33.387 74.2068 32.8784 74.2922 32.2842 74.2922C31.4365 74.2922 30.8431 74.122 30.4193 73.8679C30.0802 73.529 29.9099 73.107 29.9099 72.5987ZM36.0996 74.2075L37.2864 69.378H39.4064C40.2549 69.378 40.7627 69.3781 41.017 69.462C41.3561 69.462 41.6112 69.6322 41.8655 69.8863C42.035 70.1405 42.1198 70.4801 42.035 70.8182C41.9653 71.1059 41.8188 71.3694 41.6112 71.5806C41.3569 71.7508 41.1866 71.9202 40.933 72.0889C40.6787 72.1744 40.4244 72.2591 40.1701 72.2591C39.831 72.343 39.3224 72.343 38.729 72.343H37.8813L37.4567 74.2075H36.0996ZM38.3899 70.1405L38.0508 71.5806H38.813C39.3224 71.5806 39.7462 71.4967 39.9158 71.4967C40.0853 71.4127 40.2549 71.3265 40.3404 71.2425C40.5099 71.0723 40.5939 70.9884 40.5939 70.8182C40.6787 70.648 40.5939 70.5641 40.5092 70.3939C40.4244 70.3099 40.2549 70.2252 40.0005 70.2252C39.9158 70.1397 39.5759 70.1397 39.0673 70.1397H38.3899V70.1405ZM42.2893 74.2075L43.4769 69.378H48.3943L48.2247 70.1405H44.5789L44.3246 71.2425H47.7161L47.4618 72.0049H44.155L43.8159 73.3611H47.5466L47.2923 74.2075H42.2893ZM48.479 74.2075L49.6666 69.378H50.9389L52.8886 72.5987L53.7363 69.378H54.9231L53.7363 74.2075H52.38L50.515 71.0723L49.7513 74.2075H48.479ZM55.1781 72.5987L56.5344 72.5132C56.5344 72.8528 56.6192 73.0215 56.8735 73.1909C57.0431 73.3611 57.3821 73.4451 57.806 73.4451C58.1522 73.4452 58.496 73.3877 58.8232 73.2749C59.0775 73.1062 59.1623 72.9368 59.2471 72.7666C59.2471 72.6827 59.2471 72.5979 59.1623 72.5125C59.0775 72.4285 58.9928 72.3423 58.7385 72.2583C58.5682 72.2583 58.2298 72.1744 57.7205 72.0881C57.0423 71.9195 56.5337 71.75 56.3641 71.5799C55.9395 71.3257 55.8555 70.9876 55.9395 70.648C56.0298 70.3938 56.1748 70.1625 56.3641 69.9703C56.6185 69.7161 56.9575 69.5475 57.3814 69.462C57.7205 69.2933 58.2298 69.2933 58.7385 69.2933C59.5014 69.2933 60.0948 69.3773 60.5194 69.6314C60.8585 69.9695 60.9432 70.3092 60.8585 70.7335H59.5014C59.5862 70.4793 59.4166 70.3092 59.3318 70.2252C59.1623 70.1397 58.9072 70.055 58.4841 70.055C58.0595 70.055 57.806 70.139 57.5517 70.2252C57.4 70.291 57.2788 70.4118 57.2126 70.5633C57.2126 70.6473 57.2974 70.7335 57.3821 70.8174C57.5524 70.9876 57.8915 71.0716 58.5689 71.1555C59.1631 71.241 59.5869 71.4112 59.926 71.4951C60.1803 71.6653 60.3498 71.7493 60.5194 72.0034C60.6042 72.1736 60.6889 72.4278 60.6042 72.7659C60.5194 73.02 60.3498 73.2741 60.0955 73.5283C59.7572 73.7839 59.4174 73.9526 59.0783 74.0381C58.6544 74.2068 58.1458 74.2922 57.5524 74.2922C56.7047 74.2922 56.1106 74.122 55.6867 73.8679C55.3469 73.529 55.1781 73.107 55.1781 72.5987ZM61.2831 74.2075L62.4698 69.378H63.8262L62.6394 74.2075H61.2831ZM64.25 71.7508C64.3348 71.3265 64.5891 70.9029 64.8442 70.5648C65.0985 70.3107 65.3528 70.0565 65.6071 69.8871C65.9462 69.7169 66.2852 69.549 66.6243 69.4628C67.0482 69.3788 67.5568 69.2941 68.0662 69.2941C69.0834 69.2941 69.7616 69.4628 70.2702 69.9711C70.7788 70.3954 70.8643 70.9891 70.6948 71.7516C70.5252 72.514 70.1014 73.1077 69.4225 73.616C68.6595 74.0404 67.8959 74.2937 66.8794 74.2937C65.8614 74.2937 65.1832 74.0396 64.6746 73.616C64.25 73.1909 64.0805 72.5987 64.25 71.7508ZM65.6071 71.7508C65.5223 72.343 65.6071 72.6827 65.8614 73.0215C66.1157 73.2757 66.5396 73.4458 67.0482 73.4458C67.6416 73.4458 68.0662 73.2757 68.4893 73.0215C68.9139 72.6834 69.1674 72.3438 69.3377 71.7508C69.4225 71.2425 69.4225 70.819 69.1682 70.4801C68.8291 70.226 68.49 70.1405 67.8959 70.1405C67.3017 70.1405 66.8786 70.226 66.4548 70.4801C66.0309 70.8182 65.7766 71.2425 65.6071 71.7508ZM71.2034 74.2075L72.3902 69.378H73.6625L75.6129 72.5987L76.3759 69.378H77.6474L76.4599 74.2075H75.1036L73.1531 71.0723L72.3902 74.2075H71.2034ZM81.8867 74.2075L82.9047 70.1405H80.9542L81.1237 69.378H86.381L86.2114 70.1405H84.261L83.2437 74.2075H81.8867ZM86.1259 74.2075L87.3134 69.378H92.2316L91.9773 70.1405H88.4162L88.1604 71.2425H91.4679L91.2991 72.0049H87.9924L87.6525 73.3611H91.3832L91.1288 74.2075H86.1259ZM96.9802 72.4285L98.167 72.6827C97.9127 73.1909 97.4041 73.6145 96.8955 73.8687C96.3853 74.1228 95.7927 74.293 95.0283 74.293C94.1813 74.293 93.5024 74.0388 93.0786 73.6153C92.5699 73.1909 92.4859 72.5987 92.6539 71.8348C92.8242 70.9884 93.2481 70.3946 93.927 69.9703C94.6052 69.462 95.4529 69.2933 96.3853 69.2933C97.1498 69.2933 97.8264 69.462 98.251 69.8016C98.5053 69.9703 98.5909 70.3099 98.6756 70.648L97.3186 70.9022C97.3186 70.648 97.1498 70.4793 96.9802 70.3099C96.7259 70.1397 96.4716 70.1397 96.1318 70.1397C95.6232 70.1397 95.1993 70.2252 94.7762 70.4793C94.4364 70.7335 94.1821 71.1563 94.0118 71.7501C93.9278 72.3423 93.9278 72.7666 94.1821 73.0208C94.4364 73.2749 94.7762 73.4451 95.2848 73.4451C95.6232 73.4451 95.963 73.3611 96.2173 73.1909C96.5556 73.0215 96.8099 72.7674 96.9802 72.4285ZM99.014 74.2075L100.201 69.378H101.559L101.05 71.2425H103.678L104.186 69.378H105.459L104.272 74.2075H103L103.508 72.0889H100.88L100.371 74.2075H99.014ZM105.714 74.2075L106.901 69.378H108.172L110.122 72.5987L110.885 69.378H112.157L110.97 74.2075H109.613L107.748 71.0723L106.901 74.2075H105.714ZM112.666 71.7508C112.836 71.3265 113.006 70.9029 113.344 70.5648C113.536 70.2772 113.798 70.0437 114.107 69.8871C114.392 69.6959 114.707 69.5526 115.039 69.4628C115.548 69.3788 115.972 69.2941 116.567 69.2941C117.499 69.2941 118.262 69.4628 118.687 69.9711C119.195 70.3954 119.364 70.9891 119.195 71.7516C118.941 72.514 118.517 73.1077 117.838 73.616C117.16 74.0404 116.311 74.2937 115.294 74.2937C114.362 74.2937 113.599 74.0396 113.09 73.616C112.666 73.1909 112.496 72.5987 112.666 71.7508ZM114.108 71.7508C113.937 72.343 114.024 72.6827 114.278 73.0215C114.616 73.2757 114.956 73.4458 115.549 73.4458C116.058 73.4458 116.568 73.2757 116.906 73.0215C117.331 72.6834 117.669 72.3438 117.755 71.7508C117.924 71.2425 117.839 70.819 117.585 70.4801C117.33 70.226 116.906 70.1405 116.312 70.1405C115.803 70.1405 115.294 70.226 114.87 70.4801C114.531 70.8182 114.193 71.2425 114.108 71.7508ZM119.618 74.2075L120.805 69.378H122.162L121.145 73.3611H124.536L124.368 74.2075H119.618ZM125.555 71.7508C125.724 71.3265 125.894 70.9029 126.233 70.5648C126.425 70.2768 126.688 70.0433 126.997 69.8871C127.335 69.7169 127.59 69.549 127.93 69.4628C128.431 69.3556 128.942 69.2991 129.455 69.2941C130.388 69.2941 131.151 69.4628 131.659 69.9711C132.084 70.3954 132.254 70.9891 132.084 71.7516C131.83 72.514 131.406 73.1077 130.727 73.616C130.05 74.0404 129.201 74.2937 128.185 74.2937C127.252 74.2937 126.488 74.0396 126.065 73.616C125.555 73.1909 125.385 72.5987 125.555 71.7508ZM126.996 71.7508C126.826 72.343 126.911 72.6827 127.165 73.0215C127.505 73.2757 127.843 73.4458 128.438 73.4458C128.947 73.4458 129.455 73.2757 129.794 73.0215C130.218 72.6834 130.558 72.3438 130.642 71.7508C130.812 71.2425 130.726 70.819 130.472 70.4801C130.218 70.226 129.794 70.1405 129.285 70.1405C128.692 70.1405 128.184 70.226 127.759 70.4801C127.419 70.8182 127.08 71.2425 126.996 71.7508ZM135.899 72.4285L136.153 71.5806H139.036L138.527 73.529C138.189 73.6992 137.764 73.8687 137.172 74.0388C136.651 74.2052 136.107 74.291 135.56 74.293C134.882 74.293 134.374 74.1228 133.865 73.9534C133.44 73.6992 133.1 73.4451 132.932 73.0215C132.762 72.5987 132.762 72.1751 132.847 71.7508C133.017 71.2425 133.272 70.8189 133.611 70.3946C134.034 70.0565 134.544 69.7169 135.052 69.5482C135.476 69.3781 136.07 69.2941 136.662 69.2941C137.511 69.2941 138.105 69.3781 138.528 69.6322C138.953 69.8863 139.122 70.2259 139.206 70.6488L137.765 70.9029C137.765 70.6488 137.595 70.4801 137.427 70.3107C137.172 70.1405 136.833 70.1405 136.494 70.1405C135.9 70.1405 135.392 70.226 134.967 70.4801C134.629 70.7342 134.374 71.157 134.289 71.6661C134.12 72.2583 134.205 72.6827 134.459 73.0208C134.713 73.2749 135.053 73.4451 135.646 73.4451C135.9 73.4451 136.24 73.3611 136.494 73.2749C136.833 73.1909 137.087 73.1062 137.341 73.0208L137.512 72.4285H135.899ZM141.411 74.2075L141.833 72.1744L140.138 69.378H141.749L142.767 71.2425L144.802 69.378H146.328L143.19 72.1744L142.683 74.2075H141.411ZM16.4277 65.1416H147.006L148.363 59.1246H17.7848L16.4277 65.1416Z" fill="black"/>
</svg>
