<svg width="202" height="64" viewBox="0 0 202 64" fill="none" xmlns="http://www.w3.org/2000/svg">
<path d="M133.338 17.7363L131.102 21.6956C130.505 22.7527 130.878 24.0934 131.935 24.6902L137.851 28.0302C138.908 28.627 140.249 28.2539 140.845 27.1969L143.081 23.2375C143.678 22.1805 143.305 20.8398 142.248 20.2429L136.332 16.903C135.275 16.3062 133.934 16.6793 133.338 17.7363Z" fill="#00427C"/>
<path d="M148.417 4.15904L144.489 6.44825C143.44 7.05941 143.085 8.40511 143.696 9.45392L147.117 15.3232C147.728 16.3721 149.073 16.7269 150.122 16.1157L154.051 13.8265C155.1 13.2153 155.454 11.8696 154.843 10.8208L151.423 4.9515C150.812 3.90268 149.466 3.54788 148.417 4.15904Z" fill="#16A34A"/>
<path d="M168.311 0.00941753L163.764 0.00306893C162.55 0.00137401 161.565 0.984044 161.563 2.19794L161.554 8.99104C161.552 10.2049 162.535 11.1904 163.749 11.1921L168.296 11.1984C169.509 11.2001 170.495 10.2174 170.497 9.00352L170.506 2.21042C170.508 0.996531 169.525 0.0111124 168.311 0.00941753Z" fill="#E8B605"/>
<path d="M187.544 6.5034L183.622 4.20253C182.575 3.58826 181.229 3.93905 180.614 4.98605L177.177 10.8452C176.563 11.8922 176.913 13.2389 177.96 13.8532L181.882 16.1541C182.929 16.7683 184.276 16.4175 184.89 15.3705L188.328 9.51138C188.942 8.46438 188.591 7.11767 187.544 6.5034Z" fill="#D76008"/>
<path d="M200.925 21.8079L198.7 17.8424C198.106 16.7837 196.767 16.4068 195.708 17.0007L189.783 20.3241C188.725 20.918 188.348 22.2577 188.942 23.3164L191.166 27.2819C191.76 28.3406 193.1 28.7174 194.158 28.1236L200.083 24.8002C201.142 24.2063 201.519 22.8666 200.925 21.8079Z" fill="#DE4278"/>
<path d="M2.11372 38.7308C3.46744 36.3173 5.46074 34.324 7.87427 32.9703C10.3731 31.5677 13.1969 30.8471 16.0622 30.881C19.3671 30.8124 22.6133 31.761 25.3612 33.5983C28.0207 35.4113 29.9874 38.0719 30.9406 41.1461H23.6343C22.9914 39.7211 21.9216 38.531 20.5728 37.7405C19.1807 36.9648 17.6073 36.573 16.0139 36.6053C14.2861 36.5768 12.5836 37.0238 11.0927 37.8975C9.65272 38.7624 8.48834 40.019 7.73539 41.5205C6.94327 43.2537 6.53329 45.137 6.53329 47.0426C6.53329 48.9482 6.94327 50.8315 7.73539 52.5646C8.47788 54.0875 9.64348 55.3642 11.0927 56.2419C12.5825 57.1183 14.2857 57.5655 16.0139 57.5342C17.6105 57.5671 19.186 57.1665 20.5728 56.3748C21.9199 55.574 22.9885 54.3789 23.6343 52.9511H30.9406C30.0014 56.0273 28.042 58.6917 25.3854 60.505C22.7848 62.1536 19.7927 63.0811 16.7157 63.1925C13.6386 63.3039 10.5872 62.5952 7.87427 61.139C5.46565 59.7896 3.47321 57.8055 2.11372 55.4026C0.726416 52.8356 0 49.9635 0 47.0456C0 44.1276 0.726416 41.2556 2.11372 38.6885V38.7308Z" fill="#00427C"/>
<path d="M55.6189 38.7308C57.118 39.5772 58.3261 40.8569 59.0849 42.4021C59.9617 44.2165 60.3903 46.2148 60.3349 48.2291V62.9747H53.9826V49.0865C53.9826 47.0939 53.4874 45.5602 52.4851 44.4854C51.9597 43.9401 51.3234 43.5141 50.6192 43.2359C49.915 42.9578 49.1593 42.8341 48.4032 42.8731C47.6371 42.8339 46.8714 42.9572 46.1564 43.2351C45.4414 43.513 44.7933 43.9391 44.2548 44.4854C43.2404 45.5602 42.7332 47.0939 42.7332 49.0865V62.9747H36.3809V29.3835H42.7332V40.9469C43.5882 39.8311 44.7121 38.9502 45.9999 38.3866C47.4263 37.7519 48.9736 37.4346 50.5347 37.4568C52.3115 37.4313 54.0641 37.8705 55.6189 38.7308Z" fill="#00427C"/>
<path d="M89.5491 52.2929H71.1745C71.2364 53.907 71.9201 55.4346 73.0827 56.5559C74.2074 57.5858 75.6885 58.1379 77.2129 58.0957C78.2587 58.1586 79.2992 57.9039 80.1979 57.3651C81.0965 56.8264 81.8114 56.0287 82.2488 55.0766H89.0963C88.39 57.4654 86.9254 59.5595 84.9238 61.0424C82.7215 62.6416 80.0475 63.4578 77.3276 63.3611C75.0546 63.398 72.8113 62.8424 70.8183 61.7489C68.9141 60.6922 67.3545 59.1095 66.3258 57.19C65.2751 55.0678 64.7285 52.7317 64.7285 50.3637C64.7285 47.9956 65.2751 45.6595 66.3258 43.5373C67.3316 41.6219 68.8766 40.0433 70.77 38.9965C72.7777 37.9603 75.0028 37.4161 77.2621 37.4088C79.5214 37.4014 81.7501 37.9311 83.7644 38.9543C85.6262 39.9545 87.1559 41.4758 88.1664 43.332C89.2374 45.3318 89.7759 47.5733 89.7303 49.8413C89.7367 50.6621 89.6761 51.482 89.5491 52.2929ZM83.1546 48.0238C83.1676 47.2805 83.0157 46.5434 82.7098 45.8658C82.4039 45.1882 81.9515 44.5868 81.3853 44.1049C80.2061 43.1091 78.7014 42.5825 77.1585 42.6256C75.7026 42.5828 74.2847 43.0942 73.1913 44.0566C72.073 45.0952 71.371 46.5054 71.2168 48.0238H83.1546Z" fill="#00427C"/>
<path d="M94.311 43.5615C95.3178 41.6645 96.8421 40.092 98.7069 39.0267C100.675 37.9313 102.898 37.3751 105.15 37.4145C108.266 37.4145 110.844 38.1934 112.885 39.7513C114.978 41.3896 116.431 43.71 116.991 46.3089H110.143C109.821 45.2779 109.175 44.3781 108.302 43.7426C107.363 43.1007 106.244 42.7749 105.108 42.8127C104.284 42.7793 103.465 42.9407 102.715 43.2839C101.966 43.627 101.309 44.142 100.796 44.7872C99.7414 46.1036 99.2121 47.9714 99.2081 50.3908C99.204 52.8102 99.7334 54.6619 100.796 55.9461C101.309 56.5912 101.966 57.1063 102.715 57.4494C103.465 57.7926 104.284 57.954 105.108 57.9206C107.676 57.9206 109.354 56.7713 110.143 54.4727H116.991C116.395 57.0424 114.937 59.3309 112.861 60.9579C110.642 62.6201 107.921 63.4724 105.15 63.3732C102.897 63.4154 100.674 62.8591 98.7069 61.761C96.8421 60.6956 95.3178 59.1232 94.311 57.2262C93.2661 55.1012 92.7227 52.7648 92.7227 50.3968C92.7227 48.0289 93.2661 45.6925 94.311 43.5675V43.5615Z" fill="#00427C"/>
<path d="M136.544 62.9505L128.012 52.2446V62.9505H121.666V29.3835H128.012V48.4827L136.466 37.819H144.72L133.652 50.4331L144.811 62.9505H136.544Z" fill="#00427C"/>
<path d="M154.509 31.2856V62.9505H148.156V31.2856H154.509Z" fill="#DE4278"/>
<path d="M167.298 61.1813C164.848 59.8185 162.812 57.82 161.404 55.3966C159.975 52.8475 159.225 49.974 159.225 47.0516C159.225 44.1292 159.975 41.2558 161.404 38.7067C162.812 36.2832 164.848 34.2847 167.298 32.922C169.805 31.551 172.616 30.8325 175.474 30.8325C178.331 30.8325 181.142 31.551 183.649 32.922C186.089 34.2846 188.114 36.2839 189.507 38.7067C190.917 41.2619 191.657 44.133 191.657 47.0516C191.657 49.9703 190.917 52.8413 189.507 55.3966C188.109 57.8218 186.078 59.8213 183.631 61.1813C181.128 62.5523 178.319 63.2709 175.465 63.2709C172.61 63.2709 169.801 62.5523 167.298 61.1813ZM180.497 56.3023C181.966 55.4316 183.15 54.1516 183.903 52.619C184.709 50.8735 185.126 48.974 185.126 47.0516C185.126 45.1292 184.709 43.2297 183.903 41.4843C183.149 39.9603 181.965 38.6904 180.497 37.8311C178.965 36.9646 177.228 36.5266 175.468 36.5631C173.698 36.528 171.951 36.9657 170.407 37.8311C168.932 38.686 167.741 39.9566 166.984 41.4843C166.178 43.2297 165.761 45.1292 165.761 47.0516C165.761 48.974 166.178 50.8735 166.984 52.619C167.738 54.1598 168.929 55.4449 170.407 56.3144C171.945 57.1976 173.694 57.6463 175.468 57.6126C177.232 57.6436 178.972 57.1904 180.497 56.3023Z" fill="#DE4278"/>
<path d="M155.512 17.0835L168.524 29.2627L176.537 19.3056L168.482 25.9719L155.512 17.0835Z" fill="#565658"/>
</svg>
