<svg width="70" height="70" viewBox="0 0 70 70" fill="none" xmlns="http://www.w3.org/2000/svg">
<rect width="70" height="70" rx="6" fill="#00427C"/>
<path d="M10 0V70" stroke="white" stroke-opacity="0.4"/>
<path d="M60 0V70" stroke="white" stroke-opacity="0.4"/>
<path d="M28.6001 19.64C28.6001 19.2865 28.3136 19 27.9601 19C27.6067 19 27.3201 19.2865 27.3201 19.64V22.84H23.4801C21.7408 22.84 20.233 23.8312 19.4907 25.2796C19.1354 25.9728 19.7426 26.68 20.5216 26.68H49.4787C50.2577 26.68 50.8648 25.9728 50.5095 25.2796C49.7672 23.8312 48.2595 22.84 46.5201 22.84H42.6801V19.64C42.6801 19.2865 42.3936 19 42.0401 19C41.6867 19 41.4001 19.2865 41.4001 19.64V22.84H28.6001V19.64Z" fill="white"/>
<path fill-rule="evenodd" clip-rule="evenodd" d="M27.9609 33.72C27.9609 33.3665 28.2475 33.08 28.6009 33.08H31.2281C31.4777 33.08 31.7046 33.2251 31.8092 33.4517L32.3044 34.5246C32.6182 35.2045 33.2987 35.64 34.0476 35.64H41.4009C41.7544 35.64 42.0409 35.9265 42.0409 36.28V45.24C42.0409 45.5934 41.7544 45.88 41.4009 45.88H28.6009C28.2475 45.88 27.9609 45.5934 27.9609 45.24V33.72ZM38.8409 40.76C38.8409 41.1134 38.5544 41.4 38.2009 41.4H35.6409V43.96C35.6409 44.3134 35.3544 44.6 35.0009 44.6C34.6475 44.6 34.3609 44.3134 34.3609 43.96V41.4H31.8009C31.4475 41.4 31.1609 41.1134 31.1609 40.76C31.1609 40.4065 31.4475 40.12 31.8009 40.12H34.3609V37.56C34.3609 37.2065 34.6475 36.92 35.0009 36.92C35.3544 36.92 35.6409 37.2065 35.6409 37.56V40.12H38.2009C38.5544 40.12 38.8409 40.4065 38.8409 40.76Z" fill="white"/>
<path d="M41.4 34.36V33.72C41.4 33.3665 41.1135 33.08 40.76 33.08H35.64C35.2865 33.08 35 33.3665 35 33.72V34.36H41.4Z" fill="white"/>
<path fill-rule="evenodd" clip-rule="evenodd" d="M51 29.24C51 28.533 50.4269 27.96 49.72 27.96H20.28C19.5731 27.96 19 28.533 19 29.24V46.52C19 48.9942 21.0058 51 23.48 51H46.52C48.9942 51 51 48.9942 51 46.52V29.24ZM42.68 34.8489C43.0728 35.2004 43.32 35.7113 43.32 36.28V45.24C43.32 46.3004 42.4604 47.16 41.4 47.16H28.6C27.5396 47.16 26.68 46.3004 26.68 45.24V33.72C26.68 32.6595 27.5396 31.8 28.6 31.8H31.2271C31.9761 31.8 32.6566 32.2354 32.9704 32.9154L33.4656 33.9882C33.521 34.1082 33.6108 34.2055 33.72 34.2703V33.72C33.72 32.6595 34.5796 31.8 35.64 31.8H40.76C41.8204 31.8 42.68 32.6595 42.68 33.72V34.8489Z" fill="white"/>
<path d="M70 10L0 10" stroke="white" stroke-opacity="0.4"/>
<path d="M70 60L0 60" stroke="white" stroke-opacity="0.4"/>
</svg>
