<svg width="19" height="27" viewBox="0 0 19 27" fill="none" xmlns="http://www.w3.org/2000/svg">
<path fill-rule="evenodd" clip-rule="evenodd" d="M9.50139 14.7095C10.0091 14.7095 10.4207 15.1211 10.4207 15.6288V18.0804C10.4207 18.5882 10.0091 18.9998 9.50139 18.9998C8.99364 18.9998 8.58203 18.5882 8.58203 18.0804V15.6288C8.58203 15.1211 8.99364 14.7095 9.50139 14.7095Z" fill="#00427C"/>
<path fill-rule="evenodd" clip-rule="evenodd" d="M9.5 9.19369C5.26879 9.19369 1.83871 12.6238 1.83871 16.855C1.83871 21.0862 5.26879 24.5163 9.5 24.5163C13.7312 24.5163 17.1613 21.0862 17.1613 16.855C17.1613 12.6238 13.7312 9.19369 9.5 9.19369ZM0 16.855C0 11.6083 4.2533 7.35498 9.5 7.35498C14.7467 7.35498 19 11.6083 19 16.855C19 22.1017 14.7467 26.355 9.5 26.355C4.2533 26.355 0 22.1017 0 16.855Z" fill="#00427C"/>
<path fill-rule="evenodd" clip-rule="evenodd" d="M3.06641 6.43548C3.06641 2.88127 5.94767 0 9.50189 0C13.0561 0 15.9374 2.88127 15.9374 6.43548V10.1129C15.9374 10.6206 15.5258 11.0323 15.018 11.0323C14.5103 11.0323 14.0987 10.6206 14.0987 10.1129V6.43548C14.0987 3.89675 12.0406 1.83871 9.50189 1.83871C6.96316 1.83871 4.90512 3.89676 4.90512 6.43548V10.1129C4.90512 10.6206 4.49351 11.0323 3.98576 11.0323C3.47802 11.0323 3.06641 10.6206 3.06641 10.1129V6.43548Z" fill="#00427C"/>
</svg>
