<svg width="26" height="23" viewBox="0 0 26 23" fill="none" xmlns="http://www.w3.org/2000/svg">
<path d="M10.0669 20.6948C9.97043 20.6948 9.87566 20.6696 9.79196 20.6217C9.70826 20.5738 9.63855 20.5048 9.58972 20.4216C7.75133 17.2897 2.8502 10.6208 2.80095 10.5538C2.72222 10.4468 2.68464 10.315 2.69507 10.1825C2.7055 10.05 2.76326 9.92576 2.85778 9.83237L4.36486 8.34305C4.45691 8.2521 4.57792 8.19628 4.70685 8.18532C4.83579 8.17435 4.96449 8.20892 5.07057 8.28302L9.95174 11.6912C13.218 7.50289 16.252 4.60923 18.248 2.90174C20.4952 0.979752 21.9257 0.114474 21.9856 0.0788426C22.0716 0.0272505 22.17 -1.60686e-06 22.2702 1.12034e-09H24.7084C24.8206 -7.13508e-06 24.9301 0.0340774 25.0225 0.0977344C25.1148 0.161391 25.1856 0.251615 25.2255 0.356442C25.2655 0.461269 25.2726 0.575749 25.2459 0.684705C25.2193 0.793661 25.1601 0.891945 25.0764 0.966528C18.1524 7.13363 10.6229 20.2833 10.5476 20.4154C10.4996 20.4997 10.4302 20.5699 10.3465 20.619C10.2627 20.668 10.1675 20.6942 10.0705 20.6948L10.0669 20.6948Z" fill="#DE4278"/>
<path d="M9.95908 23C4.46764 23 0 18.5324 0 13.0409C0 7.54944 4.46764 3.08185 9.95908 3.08185C11.0602 3.08064 12.1538 3.26237 13.1953 3.61964C13.3341 3.66733 13.4482 3.7682 13.5126 3.90006C13.577 4.03192 13.5864 4.18397 13.5388 4.32275C13.4911 4.46154 13.3902 4.5757 13.2583 4.64011C13.1265 4.70453 12.9744 4.71392 12.8356 4.66623C11.9097 4.34871 10.9374 4.18724 9.95858 4.18842C5.07725 4.18842 1.10607 8.15965 1.10607 13.0409C1.10607 17.9222 5.07725 21.8934 9.95858 21.8934C14.8399 21.8934 18.8111 17.9222 18.8111 13.0409C18.8112 12.442 18.7511 11.8445 18.6315 11.2576C18.6169 11.1864 18.6166 11.1131 18.6304 11.0417C18.6442 10.9704 18.6719 10.9024 18.712 10.8418C18.752 10.7812 18.8036 10.729 18.8639 10.6883C18.9241 10.6476 18.9917 10.6192 19.0629 10.6046C19.1341 10.5901 19.2075 10.5897 19.2788 10.6035C19.3502 10.6173 19.4181 10.645 19.4788 10.6851C19.5394 10.7252 19.5916 10.7768 19.6323 10.837C19.6729 10.8972 19.7014 10.9649 19.7159 11.0361C19.8504 11.6959 19.9181 12.3676 19.9179 13.0409C19.9182 18.5324 15.4505 23 9.95908 23Z" fill="#DE4278"/>
</svg>
