<svg width="175" height="93" viewBox="0 0 175 93" fill="none" xmlns="http://www.w3.org/2000/svg">
<rect x="0.589844" width="173.59" height="92.8672" rx="6" fill="white"/>
<path fill-rule="evenodd" clip-rule="evenodd" d="M95.9808 33.9549V35.1447H99.5491C100.648 35.1447 101.013 35.4195 101.013 36.5169V37.3404C101.013 38.3462 100.648 38.621 99.5491 38.621H95.9808C94.8822 38.621 94.6065 38.3462 94.6065 37.3404V37.1572L95.7051 36.8832V37.6143H99.824V36.2421H96.2548C95.1562 36.2421 94.7905 35.9674 94.7905 34.87V34.3212C94.7905 33.223 95.1562 32.9491 96.2548 32.9491H99.4583C100.465 32.9491 100.923 33.223 100.923 34.1389V34.3212L99.7324 34.596V33.9549H95.9808ZM106.87 32.9491H108.152V38.6202H106.87V32.9491ZM115.015 32.9491H116.296V37.6135H120.597V38.6202H115.015V32.9491ZM124.532 32.9491H126.088L128.375 37.0648L130.573 32.9491H131.945L128.833 38.6202H127.826L124.532 32.9491ZM137.526 32.9491H143.385V33.8633H138.809V35.1439H141.462V36.1506H138.809V37.6135H143.385V38.6202H137.526V32.9491ZM154.092 33.8633C154.457 33.8633 154.64 33.9541 154.64 34.3204V35.0523C154.64 35.4179 154.457 35.5095 154.092 35.5095H151.071V33.8633H154.092ZM149.789 38.6202H151.071V36.5161H152.352L154.639 38.6202H156.562L153.907 36.5161H154.639C155.553 36.5161 155.921 36.1506 155.921 35.4187V34.0465C155.921 33.223 155.553 32.9491 154.639 32.9491H149.789L149.789 38.6202ZM139.907 55.6351L133.41 44.3836H133.959V43.5602H128.833V44.3836H129.566L123.251 55.6351H121.969V56.4593H126.911V55.6351H126.18L127.278 53.6242H135.423L136.521 55.6351H135.88V56.4593H140.914V55.6351H139.907ZM128.559 51.2438L131.396 46.0298L134.14 51.2438H128.559ZM151.803 51.5193H153.543C155.464 51.5193 156.38 50.8782 156.38 49.0489V46.0298C156.38 44.2921 155.465 43.5602 153.543 43.5602H141.462V44.3836H142.469V55.6351H141.462V56.4593H146.495V55.6351H145.397V51.5193H148.325L153.451 56.4593H157.751L151.803 51.5193ZM145.397 49.3245V45.7558H152.17C153.084 45.7558 153.543 45.9382 153.543 46.7625V48.3178C153.543 49.2321 153.085 49.3245 152.17 49.3245H145.397ZM125.081 43.5602H110.256V46.6709H111.08V45.8474H116.112V55.6351H115.106V56.4593H120.139V55.6351H119.132V45.8474H124.258V46.6709H125.081V43.5602ZM101.104 66.7049H100.281V61.7649C100.006 62.4976 98.6337 65.1496 97.81 66.7049H97.5343C96.7113 65.1496 95.4303 62.5876 95.247 61.7649V66.7049H94.5157V60.6667H95.4303C96.2532 62.222 96.9862 63.869 97.8092 65.6067C98.6321 63.869 99.4567 62.222 100.372 60.6667H101.103L101.104 66.7049ZM104.033 62.8631C105.04 62.8631 105.315 63.6858 105.315 64.5085C105.315 65.3327 105.039 66.2478 104.033 66.2478C103.027 66.2478 102.753 65.3335 102.753 64.5085C102.753 63.6858 103.027 62.8631 104.033 62.8631ZM104.033 66.7965C105.315 66.7965 106.138 65.8822 106.138 64.5085C106.138 63.1363 105.131 62.3136 104.033 62.3136C102.934 62.3136 101.837 63.1363 101.837 64.5085C101.837 65.8822 102.753 66.7965 104.033 66.7965ZM109.89 66.2478C109.433 66.6133 109.067 66.7965 108.517 66.7965C107.51 66.7965 106.961 66.2478 106.961 65.1496V62.406H107.694V64.9664C107.694 65.7906 108.06 66.2478 108.791 66.2478C109.433 66.2478 109.89 65.7906 109.89 64.9664V62.406H110.713V66.7049H109.89V66.2478ZM112.545 62.9547C113.002 62.4976 113.552 62.3136 114.009 62.3136C115.016 62.3136 115.565 62.8623 115.565 63.9589V66.7041H114.832V64.1421C114.832 63.3194 114.466 62.8623 113.733 62.8623C113.093 62.8623 112.545 63.3194 112.545 64.1421V66.7041H111.812V62.4052H112.545V62.9547ZM117.668 62.406H118.767V62.8631H117.668V65.3335C117.668 65.8822 117.76 66.2478 118.309 66.2478C118.583 66.2478 118.767 66.2478 118.858 66.1562L119.041 66.5217C118.767 66.7049 118.493 66.7973 118.218 66.7973C117.303 66.7973 116.845 66.3401 116.845 65.4235V62.8631H116.296V62.406H116.845V61.3078L117.668 61.0322V62.406ZM122.061 64.1429C122.153 65.5151 121.421 66.2478 120.872 66.2478C120.597 66.2478 120.231 65.9722 120.231 65.5151C120.231 64.9664 120.597 64.6008 121.33 64.4169L122.061 64.1429ZM122.061 65.9722C122.061 66.2478 122.061 66.5209 122.153 66.7049H123.067C122.885 66.4294 122.885 65.9722 122.885 65.6983V63.7774C122.885 62.4976 121.878 62.3136 121.237 62.3136C120.597 62.3136 120.139 62.4968 119.773 62.8623L120.047 63.2279C120.323 63.0447 120.688 62.7707 121.146 62.7707C121.603 62.7707 122.06 63.1363 122.06 63.685L120.962 63.9589C120.139 64.2345 119.497 64.7832 119.497 65.5143C119.497 66.3386 119.956 66.7957 120.687 66.7957C120.9 66.7913 121.109 66.7397 121.299 66.6448C121.488 66.55 121.655 66.4141 121.786 66.247L122.061 65.9722ZM124.074 62.406H124.807V66.7049H124.074V62.406ZM123.983 60.9422C123.983 60.759 124.166 60.4851 124.44 60.4851C124.807 60.4851 124.989 60.759 124.989 60.9422C124.989 61.2162 124.806 61.4909 124.44 61.4909C124.074 61.4909 123.983 61.2162 123.983 60.9422ZM126.729 62.9547C127.186 62.4976 127.736 62.3136 128.193 62.3136C129.2 62.3136 129.747 62.8623 129.747 63.9589V66.7041H129.016V64.1421C129.016 63.3194 128.65 62.8623 127.917 62.8623C127.278 62.8623 126.729 63.3194 126.729 64.1421V66.7041H125.996V62.4052H126.729V62.9547ZM134.324 61.2162H135.057C135.606 61.2162 136.064 61.5817 136.064 62.3144C136.064 62.7715 135.881 63.5942 134.782 63.5942H134.325V61.2162H134.324ZM133.5 66.7049H134.323V64.2345H135.238L136.611 66.7965L137.435 66.6133L135.971 63.9597C136.52 63.5942 136.978 63.1371 136.978 62.222C136.978 61.1238 136.245 60.6667 135.238 60.6667H133.5L133.5 66.7049ZM138.625 64.0513C138.625 63.5026 138.992 62.8631 139.815 62.8631C140.456 62.8631 140.822 63.4118 140.822 64.0513H138.625ZM141.462 64.6008C141.553 63.5026 141.096 62.3144 139.816 62.3144C138.809 62.3144 137.71 62.9555 137.71 64.5093C137.71 65.973 138.625 66.7973 139.999 66.7973C140.456 66.7973 141.004 66.6141 141.462 66.3401L141.188 65.883C140.914 66.157 140.456 66.2486 139.999 66.2486C139.174 66.2486 138.533 65.5159 138.533 64.6016L141.462 64.6008ZM144.665 63.0455C144.391 62.8631 144.116 62.7715 143.842 62.7715C143.567 62.7715 143.293 62.9547 143.293 63.3202C143.293 63.6858 143.659 63.869 144.116 64.2345C144.665 64.6 145.031 64.9656 145.031 65.6067C145.031 66.3394 144.391 66.7965 143.567 66.7965C143.018 66.7965 142.468 66.6133 142.194 66.2478L142.56 65.8822C142.835 66.0646 143.201 66.2478 143.567 66.2478C143.932 66.2478 144.299 66.0646 144.299 65.6991C144.299 65.1503 143.842 64.9664 143.385 64.6008C142.926 64.3269 142.469 63.9597 142.469 63.4126C142.469 62.6799 143.11 62.3144 143.933 62.3144C144.392 62.3144 144.758 62.4976 145.032 62.6799L144.665 63.0455ZM147.868 62.8631C148.875 62.8631 149.15 63.6858 149.15 64.5085C149.15 65.3327 148.874 66.2478 147.868 66.2478C146.862 66.2478 146.588 65.3335 146.588 64.5085C146.587 63.6858 146.861 62.8631 147.868 62.8631ZM147.868 66.7965C149.15 66.7965 150.065 65.8822 150.065 64.5085C150.065 63.1363 148.966 62.3136 147.868 62.3136C146.771 62.3136 145.764 63.1363 145.764 64.5085C145.764 65.8822 146.587 66.7965 147.868 66.7965ZM151.621 62.9547L151.895 62.5876C152.078 62.4052 152.352 62.3136 152.536 62.3136C152.81 62.3136 153.085 62.4052 153.268 62.6791L152.902 63.2279C152.719 63.1363 152.536 63.0447 152.353 63.0447C151.987 63.0447 151.622 63.4118 151.622 64.4169V66.7049H150.797V62.406H151.622L151.621 62.9547ZM155.007 62.406H156.196V62.8631H155.007V65.3335C155.007 65.8822 155.097 66.2478 155.647 66.2478C155.922 66.2478 156.104 66.2478 156.196 66.1562L156.379 66.5217C156.103 66.7049 155.83 66.7973 155.554 66.7973C154.64 66.7973 154.274 66.3401 154.274 65.4235V62.8631H153.634V62.406H154.274V61.3078L155.007 61.0322V62.406ZM105.589 48.5002H97.5351V45.7558H105.954V47.2196L108.609 46.5785V46.3045V43.5602H107.784V44.0173C107.236 43.6518 106.504 43.4686 105.406 43.4686H98.0848C95.7059 43.4686 94.8821 44.1089 94.8821 46.5785V47.9507C94.8821 50.4211 95.7051 51.0614 98.0848 51.0614H106.138V53.9889H97.0778V52.4336L94.4249 52.9823V53.3478C94.4249 55.7259 95.1562 56.367 97.6275 56.367H105.59C107.968 56.367 108.792 55.7259 108.792 53.3478V51.6101C108.791 49.1413 107.968 48.5002 105.589 48.5002ZM50.315 37.5227C47.7529 32.7651 51.7793 28.9233 57.5449 26.0882L53.6101 16.6653C53.5185 16.2997 52.6947 14.2872 52.6947 14.2872C52.6947 14.2872 51.7801 16.2997 51.6885 16.6653L43.4516 36.3337L22.7698 38.4378C22.3125 38.5294 20.3909 38.8033 20.3909 38.8033C20.3909 38.8033 22.0376 40.1755 22.2208 40.3587L32.1961 48.5918C37.1379 47.312 45.374 45.2071 48.4858 43.8349C51.1388 42.6459 52.2366 41.0906 50.315 37.5227ZM84.5412 38.8033C84.5412 38.8033 82.7105 38.5294 82.2532 38.4378L61.8462 36.3337L58.3041 27.9899L57.7249 28.3053C54.4562 30.3337 52.6979 33.7908 57.7273 39.6268C62.9432 45.8474 58.9176 50.8782 54.0674 54.9956C51.9625 56.7333 39.3336 66.5217 33.9345 70.6391L32.9274 75.2119C32.8366 75.5791 32.3793 77.6824 32.3793 77.6824C32.3793 77.6824 34.3009 76.4025 34.4842 76.3102L52.6947 64.5093L70.5396 76.5857C70.6312 76.7681 72.6444 77.8655 72.6444 77.8655C72.6444 77.8655 72.1871 75.7607 72.0955 75.4875L67.3361 53.167L82.7105 40.3587C82.8937 40.1755 84.5412 38.8033 84.5412 38.8033ZM58.1567 27.6156L57.7273 26.4537C56.8127 26.9116 56.0806 27.3687 55.3484 27.8259C54.8904 28.1006 54.4331 28.4662 53.8841 28.8317C51.0472 31.119 49.9501 33.9549 52.0542 37.6135C55.1652 42.9199 53.5185 45.2063 49.9493 47.4936C49.5829 47.7691 49.1256 48.0423 48.6683 48.3178C48.0277 48.6834 47.3872 49.0489 46.6551 49.4145C45.0991 50.3287 41.7132 51.8849 37.7784 53.6234C31.738 56.2754 24.5089 59.2029 21.5803 60.3927L17.7363 71.9189C20.0244 70.5467 23.6843 68.4426 27.8024 65.9722L42.5362 57.0996C44.641 55.7259 46.6543 54.4461 48.4842 53.3478C49.2164 52.7991 49.9485 52.3412 50.5891 51.8841C52.419 50.6958 53.7001 49.6892 54.3406 49.1405C56.9944 46.5785 58.1846 42.7359 55.9882 39.626C51.2137 32.8726 54.1542 29.5756 57.913 27.7295L58.1567 27.6156Z" fill="#2B659F"/>
</svg>
