<svg width="79" height="79" viewBox="0 0 79 79" fill="none" xmlns="http://www.w3.org/2000/svg">
<path d="M40.2571 6.659H36.7056C35.6402 2.83008 32.2179 0 28.1498 0C24.0818 0 20.6595 2.83008 19.594 6.659H16.0425C14.7188 6.659 13.6211 7.79103 13.6211 9.15613V14.1504C13.6211 17.3467 16.1717 19.977 19.2712 19.977H37.0285C40.128 19.977 42.6786 17.3467 42.6786 14.1504V9.15613C42.6786 7.79103 41.5808 6.659 40.2571 6.659Z" fill="white"/>
<path d="M47.1917 9.98828H46.3638V14.0871C46.3638 19.0713 42.2904 23.1045 37.2566 23.1045H19.0423C14.0085 23.1045 9.93509 19.0713 9.93509 14.0871V9.98828H9.10717C4.07339 9.98828 0 14.0215 0 19.0057V59.9939C0 64.978 4.07339 69.0113 9.10717 69.0113H33.5475L34.2761 64.978C34.6072 63.1418 35.4683 61.5022 36.793 60.1578L39.4423 57.5346H12.4189C11.0611 57.5346 9.93509 56.4197 9.93509 55.0753C9.93509 53.7309 11.0611 52.616 12.4189 52.616H43.88C44.0456 52.616 44.178 52.616 44.3436 52.6816H44.3767L56.2989 40.877V19.0057C56.2989 14.0215 52.2255 9.98828 47.1917 9.98828ZM43.88 46.8776H12.4189C11.0611 46.8776 9.93509 45.7628 9.93509 44.4184C9.93509 43.0739 11.0611 41.9591 12.4189 41.9591H43.88C45.2378 41.9591 46.3638 43.0739 46.3638 44.4184C46.3638 45.7628 45.2378 46.8776 43.88 46.8776ZM43.88 36.2207H12.4189C11.0611 36.2207 9.93509 35.1058 9.93509 33.7614C9.93509 32.417 11.0611 31.3021 12.4189 31.3021H43.88C45.2378 31.3021 46.3638 32.417 46.3638 33.7614C46.3638 35.1058 45.2378 36.2207 43.88 36.2207Z" fill="white"/>
<path d="M41.4974 78.9998C40.8534 78.9998 40.2257 78.7412 39.7648 78.2704C39.1992 77.6969 38.9443 76.8813 39.0848 76.079L40.8174 66.1165C40.9024 65.6159 41.1443 65.1518 41.4974 64.7904L65.7702 40.1777C68.7516 37.1475 71.6807 37.9664 73.2825 39.5909L77.3263 43.6919C79.5591 45.9529 79.5591 49.6329 77.3263 51.8972L53.0535 76.5133C52.7005 76.8747 52.2428 77.1167 51.7459 77.2029L41.9224 78.96C41.7818 78.9865 41.638 78.9998 41.4974 78.9998Z" fill="white"/>
</svg>
