<svg width="70" height="70" viewBox="0 0 70 70" fill="none" xmlns="http://www.w3.org/2000/svg">
<rect width="70" height="70" rx="6" fill="#00427C"/>
<path d="M10 0V70" stroke="white" stroke-opacity="0.4"/>
<path d="M60 0V70" stroke="white" stroke-opacity="0.4"/>
<path d="M38.5638 47.5759C37.7843 48.5597 37.0748 49.4143 36.4942 50.1024C36.1072 50.5647 35.532 50.8281 34.9246 50.8281C34.3225 50.8281 33.7474 50.5647 33.3602 50.1024C32.7798 49.4143 32.0648 48.5543 31.2908 47.5759C28.173 47.7533 23.3027 48.264 23.3027 49.7422C23.3027 51.9731 34.4461 51.9999 34.9246 51.9999C35.3976 51.9999 46.5517 51.9731 46.5517 49.7422C46.5517 48.264 41.6815 47.7533 38.5638 47.5759Z" fill="white"/>
<path d="M24.8814 41.1224C24.9544 41.1224 25.0279 41.1027 25.094 41.0612C25.283 40.9434 25.3408 40.6948 25.2232 40.5058C24.0756 38.6666 23.1507 36.9524 22.4735 35.4104C22.3842 35.2062 22.147 35.1125 21.9422 35.2033C21.7386 35.2928 21.6456 35.5306 21.7354 35.7343C22.4278 37.3118 23.3712 39.0609 24.5386 40.9326C24.6153 41.0552 24.7465 41.1224 24.8814 41.1224Z" fill="white"/>
<path d="M21.1887 31.4336C21.1498 31.2144 20.9419 31.069 20.7209 31.1073C20.502 31.1462 20.3561 31.3556 20.3949 31.5748C20.4627 31.9549 20.5524 32.3533 20.6627 32.7588C20.7115 32.9383 20.8737 33.0565 21.0516 33.0565C21.0863 33.0565 21.122 33.052 21.1572 33.0423C21.3719 32.984 21.4989 32.7628 21.4406 32.5478C21.3372 32.1651 21.2522 31.7903 21.1887 31.4336Z" fill="white"/>
<path d="M46.0911 21.9493C46.1698 22.0562 46.2916 22.1126 46.4155 22.1126C46.4985 22.1126 46.5824 22.0869 46.6549 22.0336C46.8339 21.901 46.8717 21.6485 46.7389 21.4695C46.6087 21.2931 46.4738 21.1197 46.3352 20.9493C46.1956 20.7763 45.9404 20.7504 45.7682 20.8903C45.5955 21.0307 45.5688 21.2845 45.7094 21.4575C45.8396 21.6184 45.9672 21.7824 46.0911 21.9493Z" fill="white"/>
<path d="M47.9017 23.3092C47.7972 23.1131 47.5531 23.0372 47.3562 23.1428C47.1599 23.2475 47.0854 23.4916 47.1898 23.6882C48.2319 25.6455 48.7762 27.7681 48.8077 29.9973C48.8109 30.218 48.9909 30.3947 49.2109 30.3947H49.2167C49.4392 30.3915 49.6172 30.2086 49.6141 29.9857C49.581 27.6602 48.9888 25.3515 47.9017 23.3092Z" fill="white"/>
<path d="M34.9241 18C28.194 18 22.7324 23.4669 22.7324 30.197C22.7324 35.7821 31.1021 46.1837 33.9726 49.581C34.4725 50.1723 35.381 50.1723 35.8756 49.581C38.746 46.1837 47.1211 35.7821 47.1211 30.197C47.1211 23.4669 41.6542 18 34.9241 18ZM34.9241 38.4806C30.199 38.4806 26.3663 34.6425 26.3663 29.9175C26.3663 25.1924 30.199 21.3597 34.9241 21.3597C39.6492 21.3597 43.4872 25.1924 43.4872 29.9175C43.4872 34.6425 39.6492 38.4806 34.9241 38.4806Z" fill="white"/>
<path d="M39.4108 26.5946H37.4532V25.5964C37.4532 25.1138 37.0606 24.7208 36.5776 24.7208H33.5445C33.0615 24.7208 32.6688 25.1138 32.6688 25.5964V26.5946H30.7112C30.135 26.5946 29.668 27.0617 29.668 27.6378V28.4196C29.668 29.0248 29.9373 29.5624 30.3564 29.9354V32.2672C30.3564 33.0552 30.9979 33.6962 31.7859 33.6962H38.3362C39.1242 33.6962 39.7651 33.0552 39.7651 32.2672V29.9358C40.1845 29.5627 40.4538 29.025 40.4538 28.4196V27.6378C40.4539 27.0617 39.9869 26.5946 39.4108 26.5946ZM33.4752 25.5964C33.4752 25.5581 33.5061 25.5271 33.5445 25.5271H36.5776C36.616 25.5271 36.6469 25.5581 36.6469 25.5964V26.5946H33.4752L33.4752 25.5964ZM38.9588 32.2672C38.9588 32.6163 38.6853 32.8898 38.3362 32.8898H31.7859C31.4363 32.8898 31.1628 32.6163 31.1628 32.2672V30.374C31.3364 30.4221 31.5157 30.4561 31.7047 30.4561H32.482V30.9549C32.482 31.1774 32.6626 31.358 32.8851 31.358C33.1077 31.358 33.2883 31.1774 33.2883 30.9549V30.4561H36.8338V30.9549C36.8338 31.1774 37.0144 31.358 37.237 31.358C37.4595 31.358 37.6401 31.1774 37.6401 30.9549V30.4561H38.4173C38.6062 30.4561 38.7853 30.4221 38.9588 30.3741V32.2672Z" fill="white"/>
<path d="M70 10L0 10" stroke="white" stroke-opacity="0.4"/>
<path d="M70 60L0 60" stroke="white" stroke-opacity="0.4"/>
</svg>
