<svg width="80" height="64" viewBox="0 0 80 64" fill="none" xmlns="http://www.w3.org/2000/svg">
<path d="M7.33766 17.7363L5.10214 21.6956C4.50531 22.7527 4.87839 24.0934 5.93543 24.6902L11.8508 28.0302C12.9078 28.627 14.2485 28.2539 14.8454 27.1969L17.0809 23.2375C17.6777 22.1805 17.3046 20.8398 16.2476 20.2429L10.3323 16.903C9.27523 16.3062 7.93449 16.6793 7.33766 17.7363Z" fill="#00427C"/>
<path d="M22.4174 4.15904L18.4889 6.44826C17.4401 7.05942 17.0853 8.40511 17.6965 9.45393L21.1166 15.3233C21.7278 16.3721 23.0735 16.7269 24.1223 16.1157L28.0508 13.8265C29.0996 13.2153 29.4544 11.8696 28.8432 10.8208L25.4231 4.9515C24.8119 3.90269 23.4663 3.54788 22.4174 4.15904Z" fill="#16A34A"/>
<path d="M42.3112 0.00941753L37.7644 0.00306893C36.5505 0.00137401 35.565 0.984044 35.5633 2.19794L35.5539 8.99104C35.5522 10.2049 36.5348 11.1904 37.7487 11.1921L42.2956 11.1984C43.5095 11.2001 44.4949 10.2174 44.4966 9.00352L44.5061 2.21042C44.5078 0.996531 43.5251 0.0111124 42.3112 0.00941753Z" fill="#E8B605"/>
<path d="M61.5441 6.5034L57.6223 4.20254C56.5753 3.58827 55.2286 3.93905 54.6143 4.98605L51.1768 10.8452C50.5625 11.8922 50.9133 13.2389 51.9603 13.8532L55.882 16.1541C56.929 16.7683 58.2758 16.4175 58.89 15.3705L62.3276 9.51139C62.9418 8.46439 62.5911 7.11767 61.5441 6.5034Z" fill="#D76008"/>
<path d="M74.9248 21.8079L72.7003 17.8424C72.1064 16.7837 70.7668 16.4068 69.7081 17.0007L63.7834 20.3241C62.7247 20.918 62.3479 22.2577 62.9418 23.3164L65.1662 27.2819C65.7601 28.3406 67.0998 28.7175 68.1585 28.1236L74.0831 24.8002C75.1418 24.2063 75.5186 22.8666 74.9248 21.8079Z" fill="#DE4278"/>
<path d="M2.11372 38.8533C3.46744 36.4398 5.46074 34.4465 7.87427 33.0927C10.3731 31.6901 13.1969 30.9696 16.0622 31.0035C19.3671 30.9349 22.6133 31.8834 25.3612 33.7207C28.0207 35.5337 29.9874 38.1943 30.9406 41.2686H23.6343C22.9914 39.8435 21.9216 38.6535 20.5728 37.863C19.1807 37.0872 17.6073 36.6955 16.0139 36.7278C14.2861 36.6993 12.5836 37.1463 11.0927 38.02C9.65272 38.8849 8.48834 40.1414 7.73539 41.643C6.94327 43.3761 6.53329 45.2594 6.53329 47.165C6.53329 49.0706 6.94327 50.9539 7.73539 52.6871C8.47788 54.21 9.64348 55.4867 11.0927 56.3644C12.5825 57.2407 14.2857 57.688 16.0139 57.6566C17.6105 57.6896 19.186 57.2889 20.5728 56.4973C21.9199 55.6965 22.9885 54.5014 23.6343 53.0735H30.9406C30.0014 56.1498 28.042 58.8142 25.3854 60.6275C22.7848 62.276 19.7927 63.2036 16.7157 63.315C13.6386 63.4264 10.5872 62.7177 7.87427 61.2615C5.46565 59.9121 3.47321 57.928 2.11372 55.5251C0.726416 52.958 0 50.086 0 47.168C0 44.2501 0.726416 41.3781 2.11372 38.811V38.8533Z" fill="#00427C"/>
<path d="M42.3523 31V62.6649H36V31H42.3523Z" fill="#DE4278"/>
<path d="M55.0731 61.3488C52.6238 59.9861 50.5878 57.9876 49.1797 55.5641C47.7505 53.015 47 50.1416 47 47.2192C47 44.2968 47.7505 41.4233 49.1797 38.8742C50.5878 36.4508 52.6238 34.4523 55.0731 33.0895C57.5801 31.7185 60.3916 31 63.249 31C66.1063 31 68.9178 31.7185 71.4248 33.0895C73.8648 34.4521 75.8891 36.4514 77.282 38.8742C78.6924 41.4295 79.4321 44.3005 79.4321 47.2192C79.4321 50.1378 78.6924 53.0089 77.282 55.5641C75.8842 57.9893 73.8533 59.9888 71.4067 61.3488C68.903 62.7198 66.0944 63.4385 63.2399 63.4385C60.3854 63.4385 57.5768 62.7198 55.0731 61.3488ZM68.2728 56.4699C69.7419 55.5992 70.9254 54.3192 71.6785 52.7865C72.4841 51.0411 72.9014 49.1416 72.9014 47.2192C72.9014 45.2968 72.4841 43.3973 71.6785 41.6518C70.924 40.1279 69.7402 38.858 68.2728 37.9987C66.7404 37.1322 65.003 36.6941 63.2429 36.7306C61.4734 36.6955 59.7266 37.1333 58.1828 37.9987C56.7074 38.8535 55.5166 40.1242 54.7591 41.6518C53.9534 43.3973 53.5362 45.2968 53.5362 47.2192C53.5362 49.1416 53.9534 51.0411 54.7591 52.7865C55.5134 54.3273 56.704 55.6124 58.1828 56.482C59.7208 57.3651 61.4698 57.8138 63.2429 57.7802C65.0078 57.8111 66.7474 57.3579 68.2728 56.4699Z" fill="#DE4278"/>
<path d="M29.5117 17.0835L42.5243 29.2628L50.5371 19.3056L42.482 25.9719L29.5117 17.0835Z" fill="#565658"/>
</svg>
