<svg width="70" height="70" viewBox="0 0 70 70" fill="none" xmlns="http://www.w3.org/2000/svg">
<rect width="70" height="70" rx="6" fill="#00427C"/>
<path d="M10 0V70" stroke="white" stroke-opacity="0.4"/>
<path d="M60 0V70" stroke="white" stroke-opacity="0.4"/>
<path d="M30.5 32C26.3645 32 23 28.6355 23 24.5C23 20.3645 26.3645 17 30.5 17C34.6355 17 38 20.3645 38 24.5C38 28.6355 34.6355 32 30.5 32Z" fill="white"/>
<path d="M24.125 35C20.195 35 17 38.195 17 42.1251V47.3751C17 47.9901 17.51 48.5001 18.125 48.5001H32V43.6251C32 40.8051 34.1 38.48 36.815 38.075C37.205 36.935 37.94 35.975 38.885 35.285C37.385 34.856 37.304 35 24.125 35Z" fill="white"/>
<path d="M50.3737 41H48.4987V39.875C48.4987 38.4275 47.3212 37.25 45.8737 37.25H42.1237C40.6762 37.25 39.4986 38.4275 39.4986 39.875V41H37.6236C36.8856 41 36.2211 41.3075 35.7441 41.7995L43.9987 46.106L52.2532 41.7995C51.7762 41.3075 51.1117 41 50.3737 41ZM41.7487 41V39.875C41.7487 39.668 41.9167 39.5 42.1237 39.5H45.8737C46.0807 39.5 46.2487 39.668 46.2487 39.875V41H41.7487Z" fill="white"/>
<path d="M44.5205 48.3725C44.195 48.542 43.805 48.542 43.481 48.3725L35 43.9475V50.375C35 51.8225 36.1775 53 37.625 53H50.375C51.8225 53 53 51.8225 53 50.375V43.9475L44.5205 48.3725Z" fill="white"/>
<path d="M70 10L0 10" stroke="white" stroke-opacity="0.4"/>
<path d="M70 60L0 60" stroke="white" stroke-opacity="0.4"/>
</svg>
