<svg width="30" height="20" viewBox="0 0 30 20" fill="none" xmlns="http://www.w3.org/2000/svg">
<path d="M25.5738 8.63231L20.4242 3.62205C19.9263 3.13765 19.424 2.6565 18.9362 2.16123C18.3672 1.58341 18.3572 0.843768 18.8928 0.33438C19.394 -0.142425 20.1641 -0.112014 20.7298 0.442991C23.6643 3.30527 26.5951 6.17117 29.5221 9.04069C30.1556 9.66195 30.16 10.3277 29.531 10.9447C26.6062 13.8163 23.6765 16.6826 20.742 19.5434C20.1508 20.1202 19.374 20.1484 18.8695 19.6401C18.3361 19.097 18.3861 18.3672 19.0029 17.7687L25.406 11.517C25.466 11.4584 25.5171 11.3889 25.6471 11.2346H24.9637H1.69262C0.613574 11.2346 0.0112657 10.8002 0.000152986 10.0149C-0.0109597 9.19383 0.58357 8.75287 1.70706 8.75287H24.9226H25.5216L25.5738 8.63231Z" fill="#DE4278"/>
</svg>
