<svg width="30" height="20" viewBox="0 0 30 20" fill="none" xmlns="http://www.w3.org/2000/svg">
<path d="M4.4262 8.63231L9.57582 3.62205C10.0737 3.13765 10.576 2.6565 11.0638 2.16123C11.6328 1.58341 11.6428 0.843768 11.1072 0.33438C10.606 -0.142425 9.83586 -0.112014 9.27023 0.442991C6.33573 3.30527 3.40494 6.17117 0.477859 9.04069C-0.155565 9.66195 -0.160007 10.3277 0.468971 10.9447C3.39383 13.8163 6.32351 16.6826 9.258 19.5434C9.8492 20.1202 10.626 20.1484 11.1305 19.6401C11.6639 19.097 11.6139 18.3672 10.9971 17.7687L4.594 11.517C4.53399 11.4584 4.48287 11.3889 4.35286 11.2346H5.03629H28.3074C29.3864 11.2346 29.9887 10.8002 29.9998 10.0149C30.011 9.19383 29.4164 8.75287 28.2929 8.75287H5.07741H4.47843L4.4262 8.63231Z" fill="#DE4278"/>
</svg>
