<svg width="70" height="70" viewBox="0 0 70 70" fill="none" xmlns="http://www.w3.org/2000/svg">
<rect width="70" height="70" rx="6" fill="#00427C"/>
<path d="M10 0V70" stroke="white" stroke-opacity="0.4"/>
<path d="M60 0V70" stroke="white" stroke-opacity="0.4"/>
<path d="M42.0391 18H27.9609C22.4625 18 18 22.4625 18 27.9609V42.0391C18 47.5375 22.4625 52 27.9609 52H42.0391C47.5375 52 52 47.5375 52 42.0391V27.9609C52 22.4625 47.5375 18 42.0391 18ZM30.3257 29.0493L34.2961 25.0789C34.6852 24.6898 35.3161 24.6898 35.7046 25.0789L39.675 29.0493C40.3025 29.6769 39.8583 30.75 38.9704 30.75H37.125V39.3164C37.125 39.8662 36.6787 40.3125 36.1289 40.3125H33.8711C33.3212 40.3125 32.875 39.8662 32.875 39.3164V30.75H31.0296C30.1424 30.75 29.6975 29.6769 30.325 29.0493H30.3257ZM45.625 44.6289C45.625 45.1787 45.1787 45.625 44.6289 45.625H25.3711C24.8212 45.625 24.375 45.1787 24.375 44.6289V38.1211C24.375 37.5713 24.8212 37.125 25.3711 37.125H27.6289C28.1788 37.125 28.625 37.5713 28.625 38.1211V41.375H41.375V38.1211C41.375 37.5713 41.8213 37.125 42.3711 37.125H44.6289C45.1787 37.125 45.625 37.5713 45.625 38.1211V44.6289Z" fill="white"/>
<path d="M70 10L0 10" stroke="white" stroke-opacity="0.4"/>
<path d="M70 60L0 60" stroke="white" stroke-opacity="0.4"/>
</svg>
