<svg width="70" height="70" viewBox="0 0 70 70" fill="none" xmlns="http://www.w3.org/2000/svg">
<rect width="70" height="70" rx="6" fill="#00427C"/>
<path d="M10 0V70" stroke="white" stroke-opacity="0.4"/>
<path d="M60 0V70" stroke="white" stroke-opacity="0.4"/>
<path fill-rule="evenodd" clip-rule="evenodd" d="M40.5066 41.5836C41.1407 41.4879 41.8115 41.4361 42.5052 41.4361C44.8833 41.4361 46.9844 42.0461 48.2918 42.9374C49.4143 43.7027 49.999 44.697 49.999 45.7183C49.999 46.739 49.4143 47.7332 48.2918 48.4986C46.9844 49.3905 44.8833 50.0005 42.5052 50.0005C41.1684 50.0005 39.9188 49.8072 38.8481 49.4802C39.0836 49.3008 39.2998 49.1159 39.4955 48.9268C40.8083 47.6616 41.4345 46.1705 41.4345 44.6476C41.4345 43.5889 41.1322 42.5459 40.5066 41.5836ZM42.5052 30.9976C45.0905 30.9976 47.1891 33.0963 47.1891 35.6815C47.1891 38.2667 45.0905 40.3654 42.5052 40.3654C39.92 40.3654 37.8214 38.2667 37.8214 35.6815C37.8214 33.0963 39.92 30.9976 42.5052 30.9976ZM37.5263 25.1196C37.0776 24.7348 37.0259 24.0585 37.4101 23.6099C37.7949 23.1612 38.4711 23.1094 38.9198 23.4936L41.8808 26.0319L47.0687 20.3712C47.468 19.9359 48.146 19.9063 48.5814 20.3056C49.0168 20.7049 49.0463 21.3829 48.6471 21.8183L42.7594 28.242C42.3691 28.6677 41.7116 28.7068 41.2732 28.3311L37.5263 25.1196ZM29.6586 25.3773C32.908 25.3773 35.5463 28.0155 35.5463 31.2656C35.5463 34.515 32.908 37.1533 29.6586 37.1533C26.4085 37.1533 23.7703 34.515 23.7703 31.2656C23.7703 28.0155 26.4085 25.3773 29.6586 25.3773ZM29.6586 39.2947C32.7454 39.2947 35.4758 40.0775 37.1728 41.2349C38.5554 42.1774 39.2937 43.3902 39.2937 44.6476C39.2937 45.905 38.5554 47.1178 37.1728 48.0602C35.4758 49.2177 32.7454 50.0005 29.6586 50.0005C26.5717 50.0005 23.8408 49.2177 22.1438 48.0602C20.7617 47.1178 20.0234 45.905 20.0234 44.6476C20.0234 43.3902 20.7617 42.1774 22.1438 41.2349C23.8408 40.0775 26.5717 39.2947 29.6586 39.2947Z" fill="white"/>
<path d="M70 10L0 10" stroke="white" stroke-opacity="0.4"/>
<path d="M70 60L0 60" stroke="white" stroke-opacity="0.4"/>
</svg>
