<svg width="313" height="99" viewBox="0 0 313 99" fill="none" xmlns="http://www.w3.org/2000/svg">
<path d="M206.674 27.4647L203.212 33.5958C202.288 35.2326 202.866 37.3088 204.503 38.233L213.663 43.4049C215.3 44.3291 217.376 43.7514 218.3 42.1145L221.762 35.9834C222.686 34.3466 222.108 32.2705 220.471 31.3463L211.311 26.1743C209.675 25.2501 207.598 25.8278 206.674 27.4647Z" fill="white"/>
<path d="M230.024 6.43975L223.941 9.98464C222.317 10.931 221.767 13.0149 222.714 14.639L228.01 23.7277C228.956 25.3518 231.04 25.9012 232.664 24.9548L238.747 21.4099C240.372 20.4636 240.921 18.3797 239.975 16.7556L234.678 7.66688C233.732 6.04277 231.648 5.49335 230.024 6.43975Z" fill="white"/>
<path d="M260.831 0.0145832L253.79 0.00475229C251.911 0.00212768 250.385 1.52381 250.382 3.40354L250.367 13.9228C250.365 15.8025 251.886 17.3285 253.766 17.3311L260.807 17.3409C262.687 17.3436 264.213 15.8218 264.215 13.9421L264.23 3.42288C264.233 1.54315 262.711 0.0172078 260.831 0.0145832Z" fill="white"/>
<path d="M290.612 10.0709L284.539 6.50797C282.918 5.55676 280.832 6.09995 279.881 7.72125L274.558 16.7942C273.607 18.4155 274.15 20.501 275.771 21.4522L281.844 25.0151C283.466 25.9663 285.551 25.4231 286.502 23.8018L291.825 14.7288C292.777 13.1075 292.233 11.0221 290.612 10.0709Z" fill="white"/>
<path d="M311.334 33.7693L307.89 27.6286C306.97 25.9892 304.896 25.4057 303.256 26.3253L294.082 31.4716C292.442 32.3912 291.859 34.4658 292.778 36.1052L296.223 42.2459C297.143 43.8853 299.217 44.4689 300.857 43.5492L310.031 38.4029C311.67 37.4833 312.254 35.4088 311.334 33.7693Z" fill="white"/>
<path d="M3.47039 59.9749C5.56666 56.2375 8.65332 53.1509 12.3907 51.0546C16.2601 48.8826 20.6329 47.7669 25.0699 47.8193C30.1876 47.7131 35.2143 49.182 39.4696 52.027C43.5878 54.8345 46.6333 58.9545 48.1094 63.7151H36.7954C35.7999 61.5084 34.1433 59.6655 32.0547 58.4414C29.8989 57.2402 27.4625 56.6335 24.9951 56.6836C22.3195 56.6394 19.6832 57.3316 17.3745 58.6846C15.1447 60.0239 13.3416 61.9696 12.1756 64.2948C10.949 66.9786 10.3142 69.895 10.3142 72.8458C10.3142 75.7967 10.949 78.713 12.1756 81.3968C13.3254 83.7551 15.1304 85.7321 17.3745 87.0912C19.6816 88.4482 22.319 89.1407 24.9951 89.0922C27.4674 89.1433 29.9072 88.5228 32.0547 87.2969C34.1406 86.0569 35.7954 84.2062 36.7954 81.9952H48.1094C46.655 86.7588 43.6208 90.8847 39.507 93.6926C35.48 96.2455 30.8466 97.6817 26.0818 97.8543C21.3169 98.0268 16.5918 96.9293 12.3907 94.6744C8.66092 92.5848 5.57559 89.5125 3.47039 85.7915C1.32213 81.8163 0.197266 77.3689 0.197266 72.8505C0.197266 68.332 1.32213 63.8846 3.47039 59.9095V59.9749Z" fill="white"/>
<path d="M86.3257 59.975C88.6469 61.2856 90.5178 63.2673 91.6928 65.66C93.0505 68.4696 93.7142 71.564 93.6284 74.6832V97.517H83.7917V76.011C83.7917 72.9253 83.025 70.5503 81.4728 68.886C80.6592 68.0417 79.6739 67.3819 78.5835 66.9512C77.493 66.5205 76.3228 66.3289 75.1519 66.3894C73.9656 66.3286 72.7799 66.5196 71.6727 66.9499C70.5655 67.3802 69.562 68.04 68.7281 68.886C67.1573 70.5503 66.3718 72.9253 66.3718 76.011V97.517H56.5352V45.5005H66.3718V63.4066C67.6958 61.6787 69.4362 60.3147 71.4304 59.442C73.6392 58.4591 76.0352 57.9678 78.4526 58.0021C81.204 57.9626 83.918 58.6427 86.3257 59.975Z" fill="white"/>
<path d="M138.865 80.9766H110.411C110.507 83.476 111.566 85.8416 113.366 87.578C115.108 89.1727 117.401 90.0278 119.762 89.9624C121.381 90.0597 122.993 89.6654 124.384 88.8311C125.776 87.9968 126.883 86.7615 127.56 85.2872H138.164C137.07 88.9864 134.802 92.2291 131.702 94.5254C128.292 97.0017 124.151 98.2657 119.94 98.116C116.42 98.1731 112.946 97.3127 109.86 95.6194C106.911 93.983 104.496 91.5322 102.903 88.5599C101.276 85.2736 100.43 81.6561 100.43 77.9892C100.43 74.3222 101.276 70.7048 102.903 67.4185C104.461 64.4524 106.853 62.0079 109.785 60.387C112.894 58.7824 116.34 57.9397 119.838 57.9283C123.337 57.917 126.788 58.7372 129.907 60.3215C132.79 61.8704 135.159 64.2262 136.724 67.1006C138.382 70.1972 139.216 73.6683 139.145 77.1804C139.155 78.4513 139.061 79.7209 138.865 80.9766ZM128.963 74.3659C128.983 73.2148 128.748 72.0735 128.274 71.0242C127.8 69.9748 127.1 69.0436 126.223 68.2974C124.397 66.7554 122.067 65.9399 119.678 66.0066C117.423 65.9403 115.228 66.7323 113.535 68.2226C111.803 69.8308 110.716 72.0146 110.477 74.3659H128.963Z" fill="white"/>
<path d="M146.239 67.4554C147.798 64.5179 150.158 62.0829 153.046 60.4332C156.094 58.7369 159.535 57.8757 163.023 57.9366C167.848 57.9366 171.84 59.1428 175.001 61.5552C178.243 64.0922 180.493 67.6854 181.359 71.7098H170.756C170.256 70.1133 169.257 68.7199 167.904 67.7359C166.45 66.7418 164.717 66.2374 162.957 66.2959C161.683 66.2442 160.413 66.4942 159.253 67.0255C158.093 67.5568 157.075 68.3544 156.281 69.3535C154.648 71.3919 153.828 74.2843 153.822 78.0307C153.816 81.7771 154.636 84.6446 156.281 86.6331C157.075 87.6322 158.093 88.4298 159.253 88.9611C160.413 89.4924 161.683 89.7424 162.957 89.6907C166.935 89.6907 169.534 87.911 170.756 84.3516H181.359C180.436 88.3309 178.179 91.8745 174.963 94.394C171.527 96.9679 167.313 98.2878 163.023 98.1342C159.535 98.1995 156.092 97.338 153.046 95.6376C150.158 93.9879 147.798 91.5529 146.239 88.6154C144.621 85.3249 143.779 81.7069 143.779 78.0401C143.779 74.3732 144.621 70.7552 146.239 67.4647V67.4554Z" fill="white"/>
<path d="M211.639 97.4796L198.427 80.9013V97.4796H188.6V45.5005H198.427V75.0759L211.518 58.5631H224.3L207.16 78.0961L224.44 97.4796H211.639Z" fill="white"/>
<path d="M239.458 48.4463V97.48H229.621V48.4463H239.458Z" fill="white"/>
<path d="M259.261 94.7403C255.468 92.6301 252.315 89.5354 250.135 85.7826C247.922 81.8353 246.76 77.3857 246.76 72.8603C246.76 68.3349 247.922 63.8853 250.135 59.938C252.315 56.1852 255.468 53.0905 259.261 50.9803C263.143 48.8573 267.497 47.7446 271.922 47.7446C276.346 47.7446 280.7 48.8573 284.582 50.9803C288.36 53.0903 291.495 56.1863 293.652 59.938C295.836 63.8949 296.981 68.3407 296.981 72.8603C296.981 77.3799 295.836 81.8257 293.652 85.7826C291.487 89.538 288.343 92.6343 284.554 94.7403C280.677 96.8633 276.328 97.9761 271.908 97.9761C267.487 97.9761 263.138 96.8633 259.261 94.7403ZM279.701 87.1852C281.976 85.8369 283.809 83.8548 284.975 81.4814C286.222 78.7786 286.868 75.8372 286.868 72.8603C286.868 69.8834 286.222 66.942 284.975 64.2392C283.807 61.8793 281.973 59.9129 279.701 58.5822C277.328 57.2404 274.638 56.5621 271.912 56.6186C269.172 56.5642 266.467 57.2421 264.077 58.5822C261.792 59.906 259.948 61.8735 258.775 64.2392C257.527 66.942 256.881 69.8834 256.881 72.8603C256.881 75.8372 257.527 78.7786 258.775 81.4814C259.943 83.8674 261.787 85.8574 264.077 87.2039C266.458 88.5715 269.166 89.2663 271.912 89.2142C274.645 89.2621 277.339 88.5603 279.701 87.1852Z" fill="white"/>
<path d="M241.01 26.4541L261.16 45.3139L273.568 29.8951L261.094 40.218L241.01 26.4541Z" fill="white"/>
</svg>
