<svg width="175" height="93" viewBox="0 0 175 93" fill="none" xmlns="http://www.w3.org/2000/svg">
<rect x="0.539062" width="173.59" height="92.8672" rx="6" fill="white"/>
<path d="M105.629 25.7676C105.544 25.5055 105.378 25.2768 105.155 25.1142C104.933 24.9515 104.665 24.863 104.389 24.8613H92.0034L88.1762 13.0817C88.0046 12.5592 87.5101 12.183 86.9304 12.183C86.3508 12.183 85.8576 12.5594 85.6848 13.0831L81.8561 24.8613H69.4729C68.9225 24.8639 68.4115 25.216 68.2324 25.7676C68.147 26.03 68.1465 26.3126 68.2309 26.5752C68.3153 26.8379 68.4804 27.0673 68.7027 27.2307L78.7217 34.5104L74.8943 46.2887C74.8116 46.5517 74.8133 46.834 74.8993 47.0959C74.9852 47.3579 75.1511 47.5864 75.3735 47.7493C75.8438 48.0912 76.4642 48.0747 76.9114 47.7543L86.9304 40.4746L96.9495 47.7543C97.397 48.0747 98.0172 48.0911 98.4874 47.7493C98.7104 47.5868 98.8766 47.3583 98.9626 47.0962C99.0486 46.8341 99.05 46.5515 98.9666 46.2886L95.1393 34.5104L105.158 27.2307C105.381 27.0673 105.546 26.8379 105.63 26.5752C105.714 26.3126 105.714 26.03 105.629 25.7676Z" fill="black"/>
<path d="M105.629 25.0144C105.544 24.7523 105.378 24.5236 105.156 24.3609C104.933 24.1982 104.665 24.1098 104.389 24.1081H92.0036L88.1762 12.3285C88.0046 11.8061 87.5101 11.4298 86.9304 11.4298C86.3508 11.4298 85.8576 11.8061 85.6848 12.3297L81.8561 24.108H69.4729C68.9225 24.1106 68.4115 24.4626 68.2324 25.0143C68.147 25.2766 68.1465 25.5592 68.2309 25.8219C68.3153 26.0845 68.4804 26.3139 68.7027 26.4774L78.7217 33.7571L74.8943 45.5354C74.8116 45.7984 74.8133 46.0807 74.8993 46.3426C74.9852 46.6046 75.1511 46.833 75.3735 46.9959C75.8438 47.3379 76.4642 47.3213 76.9114 47.001L86.9304 39.7212L96.9495 47.0009C97.397 47.3213 98.0171 47.3378 98.4874 46.9959C98.7104 46.8334 98.8767 46.605 98.9627 46.3428C99.0487 46.0807 99.0501 45.7982 98.9666 45.5352L95.1393 33.7571L105.158 26.4774C105.381 26.3139 105.546 26.0845 105.63 25.8219C105.714 25.5592 105.714 25.2766 105.629 25.0143" fill="white"/>
<path d="M76.513 45.8433C76.4702 45.8746 76.4186 45.8915 76.3655 45.8915C76.3125 45.8915 76.2609 45.8746 76.2181 45.8433C76.1266 45.7774 76.0898 45.6743 76.1228 45.5739L80.104 33.3165L69.6859 25.7481C69.6433 25.7173 69.6116 25.6737 69.5956 25.6236C69.5797 25.5735 69.5801 25.5196 69.597 25.4698C69.6121 25.4193 69.6432 25.375 69.6856 25.3436C69.728 25.3122 69.7794 25.2954 69.8321 25.2957H82.7099L86.6885 13.0509C86.7048 13.0003 86.7367 12.9562 86.7796 12.9249C86.8226 12.8937 86.8743 12.8768 86.9274 12.8768C87.0392 12.8768 87.1321 12.9505 87.1664 13.0509L91.1437 25.2957H104.023C104.128 25.2957 104.228 25.3631 104.262 25.4698C104.278 25.5199 104.278 25.5739 104.262 25.624C104.245 25.6741 104.213 25.7176 104.17 25.7481L93.7495 33.3165L97.7308 45.5689C97.7626 45.6706 97.7269 45.7774 97.6367 45.8435C97.5939 45.8747 97.5422 45.8916 97.4892 45.8916C97.4362 45.8916 97.3846 45.8747 97.3418 45.8435L86.9274 38.2727L76.513 45.8433Z" fill="#ED1C24"/>
<path d="M57.2864 44.5397V42.1246H56.8124V41.3453H58.6466V42.1246H58.1508V44.5397H57.2864ZM60.5487 42.8239C60.7762 42.8239 60.8995 42.6243 60.8995 42.4171C60.8995 42.1374 60.7304 42.018 60.494 42.032V42.82L60.5487 42.8239ZM60.9683 44.54L60.4891 43.2103L60.4802 43.218C60.4853 43.3744 60.4941 43.5321 60.4941 43.6883V44.54H59.6297V41.3456H60.4636C61.2136 41.3456 61.7551 41.5656 61.7551 42.4082C61.7551 42.7604 61.6038 43.073 61.2607 43.2103L61.9038 44.54H60.9683ZM63.9161 43.4512L63.8233 42.7101C63.7979 42.5107 63.7814 42.3073 63.761 42.1077H63.7509C63.7267 42.3073 63.7052 42.5107 63.6708 42.7101L63.5526 43.4512H63.9161ZM64.0813 44.5393L64.0178 44.1287H63.4381L63.3657 44.5393H62.4759L63.2424 41.345H64.2975L64.9749 44.5393H64.0813ZM66.6325 43.7689C67.0266 43.765 67.0939 43.2731 67.0939 42.9718C67.0939 42.6248 67.0264 42.1417 66.6325 42.1417V43.7689ZM65.7682 41.3461H66.4635C67.4461 41.3461 67.9749 41.9638 67.9749 42.9298C67.9749 44.4045 67.0483 44.5391 66.522 44.5391H65.7682V41.3461ZM68.941 41.3455H70.5465V42.0992H69.8054V42.5442H70.4701V43.2978H69.8054V43.7848H70.5465V44.5398H68.941V41.3455ZM105.312 44.5397L105.232 42.5312H105.223C105.185 42.7639 105.155 42.9978 105.113 43.2304L104.868 44.5397H104.164L103.863 42.5312H103.855C103.85 42.769 103.855 43.0017 103.842 43.2392L103.77 44.5396H102.842L103.214 41.3452H104.291L104.538 43.0435H104.545C104.571 42.8451 104.592 42.6494 104.629 42.4511L104.838 41.3452H105.9L106.21 44.5396H105.312V44.5397ZM108.214 43.4512L108.121 42.7101C108.096 42.5107 108.079 42.3073 108.057 42.1077H108.049C108.023 42.3073 108.003 42.5107 107.968 42.7101L107.85 43.4512H108.214ZM108.379 44.5393L108.315 44.1287H107.736L107.664 44.5393H106.774L107.541 41.345H108.595L109.273 44.5393H108.379ZM110.942 42.8239C111.171 42.8239 111.295 42.6243 111.295 42.4171C111.295 42.1374 111.124 42.018 110.888 42.032V42.82L110.942 42.8239ZM111.362 44.54L110.883 43.2103L110.875 43.218C110.879 43.3744 110.888 43.5321 110.888 43.6883V44.54H110.023V41.3456H110.857C111.609 41.3456 112.15 41.5656 112.15 42.4082C112.15 42.7604 111.997 43.073 111.654 43.2103L112.298 44.54H111.362ZM115.428 41.3455L114.738 42.8873L115.508 44.5398H114.582L114.044 43.073H114.039V44.5398H113.175V41.3455H114.039V42.7055H114.044L114.517 41.3455H115.428ZM48.8963 65.8678C48.5493 64.908 48.8263 61.9756 50.442 61.4227C52.1415 60.8394 53.1863 61.715 53.6935 63.4286C53.8828 64.0641 53.8408 64.7352 53.6337 64.9858C53.3325 65.3519 52.7948 65.5691 52.3105 65.7332L51.0381 66.154C49.7874 66.5796 49.1899 66.6648 48.8963 65.8678ZM56.9233 69.4244C56.0971 70.252 55.0244 71.073 53.968 71.4087C52.9727 71.7289 50.1355 71.9768 49.3004 69.6341C49.1199 69.1258 49.2661 68.9693 49.7262 68.8333C50.4101 68.63 52.1745 68.1114 54.0354 67.4135C55.7248 66.7831 57.2311 66.0089 57.7039 65.6936C58.5492 65.1395 58.6737 64.359 58.3026 63.5187C57.1178 60.8534 54.4345 58.0631 49.9754 58.9111C46.4314 59.5871 43.893 62.7777 43.893 66.4271C43.893 70.9472 46.6171 73.5885 50.0822 74.4084C53.2867 75.1698 57.053 73.6166 58.6648 71.0057C59.3042 70.0002 57.5042 68.8068 56.9233 69.4244ZM90.4044 65.8678C90.1984 65.2933 90.2124 64.0145 90.6026 62.9609C90.8683 62.2527 91.2598 61.6985 91.95 61.4227C92.7267 61.1101 93.3915 61.1952 93.9114 61.495C94.5062 61.8371 94.9308 62.5146 95.2015 63.4284C95.3896 64.0639 95.349 64.7351 95.1417 64.9857C94.8379 65.3518 94.3688 65.5347 93.8172 65.7331C93.3961 65.8831 92.9723 66.0254 92.5461 66.1602C91.2878 66.5544 90.698 66.6648 90.4044 65.8678ZM98.429 69.4244C97.6053 70.252 96.5312 71.073 95.4774 71.4087C94.4808 71.7289 91.6424 71.9768 90.8086 69.6341C90.6281 69.1258 90.7755 68.9693 91.2345 68.8333C91.9183 68.63 93.6827 68.1114 95.5436 67.4135C97.2329 66.7831 98.7406 66.0089 99.2109 65.6936C100.057 65.1395 100.182 64.359 99.8107 63.5187C98.6248 60.8534 95.9439 58.0631 91.4836 58.9111C87.9397 59.5871 85.4013 62.7777 85.4013 66.4271C85.4013 70.9472 88.1241 73.5885 91.5904 74.4084C94.7937 75.1698 98.5613 73.6166 100.173 71.0057C100.812 70.0002 99.0124 68.8068 98.429 69.4244ZM122.047 65.8678C121.839 65.2933 121.855 64.0145 122.245 62.9609C122.511 62.2527 122.903 61.6985 123.593 61.4227C124.37 61.1101 125.034 61.1952 125.554 61.495C126.149 61.8371 126.572 62.5146 126.844 63.4284C127.031 64.0639 126.992 64.7351 126.783 64.9857C126.482 65.3518 126.013 65.5347 125.46 65.7331C125.039 65.8829 124.614 66.0253 124.188 66.1602C122.928 66.5544 122.341 66.6648 122.047 65.8678ZM130.072 69.4244C129.249 70.252 128.174 71.073 127.118 71.4087C126.124 71.7289 123.285 71.9768 122.45 69.6341C122.271 69.1258 122.418 68.9693 122.877 68.8333C123.561 68.63 125.324 68.1114 127.186 67.4135C128.874 66.7831 130.383 66.0089 130.854 65.6936C131.699 65.1395 131.823 64.359 131.453 63.5187C130.268 60.8534 127.585 58.0631 123.126 58.9111C119.581 59.5871 117.044 62.7777 117.044 66.4271C117.044 70.9472 119.767 73.5885 123.233 74.4084C126.436 75.1698 130.203 73.6166 131.815 71.0057C132.454 70.0002 130.655 68.8068 130.072 69.4244ZM32.3241 64.68C32.2044 64.68 32.0896 64.7276 32.005 64.8123C31.9204 64.897 31.8729 65.0117 31.8729 65.1314L31.8741 70.2503C31.8792 71.0445 32.1182 71.5759 32.5516 71.7679C32.7855 71.8721 33.2952 72.1072 33.5837 72.2369C33.782 72.3272 33.7896 72.5292 33.7603 72.7887C33.735 73.0199 33.6675 73.6798 33.6422 73.9225C33.6156 74.1867 33.4096 74.2986 33.0092 74.2986H25.5998C25.2248 74.2986 24.9922 74.2327 24.9604 73.9225C24.9349 73.6797 24.8662 72.9831 24.8409 72.7519C24.8077 72.4581 24.8675 72.3068 25.0493 72.223C25.2972 72.1072 25.8373 71.8669 26.0713 71.7578C26.5315 71.5443 26.7272 70.9214 26.7272 70.2667L26.7259 57.6101C26.7247 56.9034 26.5263 56.3328 26.0116 56.0937C25.7777 55.9856 25.2896 55.7644 25.0519 55.6514C24.8549 55.5573 24.8014 55.3756 24.8396 55.1176C24.8726 54.8861 24.9274 54.4909 24.9604 54.2481C25.0023 53.9404 25.2248 53.8732 25.5998 53.8732H32.6647C33.041 53.8732 33.2558 53.9404 33.2989 54.2481C33.332 54.4909 33.3867 54.8861 33.4197 55.1176C33.4579 55.3756 33.407 55.5536 33.2151 55.6566C32.9634 55.7924 32.6101 55.9908 32.3837 56.1142C32.0787 56.2807 31.879 56.6252 31.874 57.4412L31.8728 61.1301C31.8726 61.1894 31.8842 61.2482 31.9068 61.3031C31.9295 61.3579 31.9627 61.4078 32.0046 61.4498C32.0465 61.4919 32.0963 61.5252 32.1511 61.548C32.2059 61.5707 32.2646 61.5825 32.324 61.5825H36.2798C36.3391 61.5826 36.3979 61.5709 36.4528 61.5482C36.5077 61.5255 36.5575 61.4921 36.5994 61.4501C36.6413 61.408 36.6745 61.3581 36.6971 61.3032C36.7197 61.2483 36.7312 61.1895 36.731 61.1301L36.7297 57.4412C36.7246 56.6252 36.5251 56.2807 36.2213 56.1142C35.9938 55.9909 35.6416 55.7925 35.3899 55.6566C35.1979 55.5536 35.1458 55.3756 35.1839 55.1176C35.217 54.8861 35.2716 54.4909 35.3047 54.2481C35.3478 53.9404 35.5639 53.8732 35.9389 53.8732H43.0038C43.3788 53.8732 43.6013 53.9404 43.6445 54.2481C43.6775 54.4909 43.7308 54.8861 43.7652 55.1176C43.802 55.3756 43.7499 55.5573 43.5529 55.6514C43.3139 55.7644 42.8258 55.9856 42.5919 56.0937C42.0784 56.3328 41.8801 56.9034 41.8788 57.6101L41.8776 70.2667C41.8776 70.9214 42.072 71.5443 42.5321 71.7578C42.766 71.8669 43.3075 72.1072 43.5553 72.223C43.7371 72.3068 43.7956 72.4581 43.7639 72.7519C43.7384 72.9831 43.6686 73.6798 43.6443 73.9225C43.6126 74.2327 43.3787 74.2986 43.0037 74.2986H35.5947C35.1943 74.2986 34.9883 74.1867 34.9617 73.9225C34.9362 73.6797 34.8689 73.0199 34.8434 72.7887C34.8154 72.5293 34.8218 72.3272 35.0213 72.2369C35.3087 72.1072 35.8184 71.8721 36.0535 71.7679C36.4857 71.5759 36.7247 71.0445 36.7297 70.2503L36.731 65.1314C36.7311 65.0721 36.7195 65.0134 36.6968 64.9586C36.6742 64.9038 36.641 64.854 36.599 64.8121C36.5571 64.7701 36.5074 64.7369 36.4526 64.7142C36.3978 64.6915 36.3391 64.6799 36.2798 64.68H32.3241Z" fill="#048743"/>
<path d="M111.736 64.2713C111.736 64.2713 114.419 69.1256 115.151 70.459C115.708 71.4721 116.334 71.753 117.181 72.236C117.4 72.3592 117.466 72.4407 117.427 72.8511C117.398 73.1676 117.348 73.652 117.324 73.9038C117.29 74.2545 117.04 74.2979 116.692 74.2979H112.736C112.236 74.2979 112.04 74.1937 111.862 73.8708C111.671 73.525 108.364 67.5074 108.364 67.5074L107.117 68.6984V70.3587C107.123 71.12 107.474 71.6131 107.816 71.804C108.037 71.9272 108.373 72.1142 108.642 72.2627C108.849 72.3772 108.864 72.5221 108.836 72.8475C108.816 73.0775 108.753 73.6787 108.729 73.9226C108.701 74.1921 108.517 74.2978 108.094 74.2978H101.51C101.134 74.2978 100.898 74.2327 100.867 73.9226C100.841 73.6787 100.779 73.033 100.754 72.8028C100.722 72.5129 100.772 72.3656 100.963 72.2589C101.24 72.1024 101.517 71.9472 101.796 71.7935C102.12 71.6143 102.383 71.1288 102.383 70.3343V57.4784C102.38 56.5885 102.044 56.1844 101.782 56.038C101.598 55.9338 101.064 55.6377 100.942 55.5677C100.757 55.4635 100.722 55.2627 100.757 55.016C100.79 54.7872 100.831 54.4898 100.865 54.247C100.91 53.9241 101.121 53.8721 101.505 53.8721H106.26C106.664 53.8721 107.116 54.1708 107.116 54.7353L107.117 64.5584C107.117 64.5584 109.785 62.1547 110.179 61.8013C110.46 61.5484 110.38 61.279 110.222 61.2052C109.949 61.0782 109.644 60.9433 109.472 60.8659C109.283 60.7794 109.186 60.6778 109.218 60.3652C109.25 60.069 109.302 59.5908 109.324 59.3635C109.352 59.0684 109.452 58.9477 109.938 58.9477H115.749C116.114 58.9477 116.237 59.0737 116.261 59.3125C116.287 59.5847 116.353 60.1489 116.378 60.4211C116.399 60.6383 116.248 60.764 115.927 60.8811C115.086 61.1888 114.721 61.4061 113.584 62.5043C112.874 63.1907 111.736 64.2713 111.736 64.2713ZM65.744 70.3823C65.7504 71.1436 66.0032 71.6127 66.3465 71.8035C66.6213 71.9574 66.8967 72.1103 67.1727 72.2622C67.3786 72.3767 67.3952 72.5228 67.3659 72.847C67.3468 73.0782 67.2833 73.6795 67.2591 73.9221C67.2311 74.1928 67.0468 74.2985 66.6248 74.2985H60.0391C59.6641 74.2985 59.4315 74.2324 59.3997 73.9221C59.3624 73.5487 59.3238 73.1754 59.2841 72.8023C59.2523 72.5137 59.3044 72.3663 59.4937 72.2582C59.7703 72.1025 60.0474 71.9479 60.3251 71.7943C60.6493 71.6138 60.9136 71.1295 60.9136 70.3338L60.9124 63.1289C60.9111 62.1616 60.6264 61.7091 60.3137 61.5324C60.128 61.4282 59.8675 61.2784 59.7442 61.2085C59.5497 61.0979 59.518 60.9108 59.5535 60.6656C59.5865 60.4369 59.6374 60.0504 59.6716 59.8076C59.7136 59.4999 59.936 59.4328 60.311 59.4328H65.3014C65.3595 59.4327 65.417 59.4441 65.4706 59.4664C65.5242 59.4886 65.5729 59.5212 65.6139 59.5623C65.6548 59.6034 65.6873 59.6522 65.7094 59.7058C65.7314 59.7595 65.7427 59.817 65.7425 59.8751L65.744 70.3823ZM62.9423 53.459C61.4819 53.459 60.2996 54.6004 60.2996 56.0089C60.2996 57.4174 61.4819 58.5589 62.9423 58.5589C64.4003 58.5589 65.5838 57.4174 65.5838 56.0089C65.5838 54.6004 64.4003 53.459 62.9423 53.459ZM82.9146 63.1352C82.9146 60.49 81.7159 59.4807 80.3279 59.037C78.7249 58.5272 76.7904 59.3661 75.7976 59.8251C75.5353 59.9463 75.2755 60.073 75.0185 60.2051C74.7617 59.6026 74.6257 59.4323 74.2456 59.4323H69.5514C69.1764 59.4323 68.9539 59.4997 68.912 59.8071C68.8777 60.0499 68.8269 60.4364 68.7937 60.6651C68.7582 60.9106 68.7887 61.0974 68.9844 61.208C69.1065 61.2779 69.3683 61.4292 69.5526 61.5334C69.8665 61.7086 70.1501 62.1614 70.1526 63.1287L70.1539 70.3333C70.1539 71.1293 69.8895 71.6135 69.5653 71.794C69.287 71.947 69.0099 72.102 68.734 72.2592C68.5433 72.3661 68.4912 72.5134 68.5242 72.8033C68.5497 73.0333 68.6144 73.6792 68.6398 73.9219C68.6703 74.2321 68.9042 74.298 69.2792 74.298H75.8637C76.2856 74.298 76.47 74.1926 76.4979 73.9219C76.522 73.6791 76.5857 73.0779 76.6059 72.8465C76.6339 72.5223 76.6187 72.3774 76.4114 72.2617C76.1349 72.1108 75.8595 71.9578 75.5852 71.8029C75.1593 71.5614 74.9813 70.9334 74.9813 70.3628L74.984 64.6363C74.984 63.1401 75.7136 62.3001 76.7152 62.1767C77.3812 62.0928 78.2354 62.5033 78.2354 63.6817V71.3961C78.2354 73.5926 80.1027 74.4354 81.5683 74.4354C83.1204 74.4354 84.4449 73.7223 85.0372 72.4816C85.2254 72.0888 84.9953 71.7901 84.8034 71.5778C84.5835 71.335 84.3853 71.1191 84.0267 71.3023C83.6734 71.4839 83.3022 71.8348 83.0885 71.7167C82.9296 71.6302 82.9144 71.4903 82.9144 71.1471V63.1352H82.9146ZM146.849 63.1352C146.849 60.49 145.65 59.4807 144.262 59.037C142.659 58.5272 140.725 59.3661 139.732 59.8251C139.329 60.0108 138.953 60.2051 138.953 60.2051C138.697 59.6026 138.56 59.4323 138.18 59.4323H133.485C133.111 59.4323 132.888 59.4997 132.845 59.8071C132.812 60.0499 132.761 60.4364 132.728 60.6651C132.691 60.9106 132.723 61.0974 132.917 61.208C133.041 61.2779 133.301 61.4292 133.488 61.5334C133.801 61.7086 134.085 62.1614 134.087 63.1287L134.088 70.3333C134.088 71.1293 133.824 71.6135 133.498 71.794C133.221 71.9472 132.944 72.1023 132.668 72.2592C132.478 72.3661 132.425 72.5134 132.459 72.8033C132.483 73.0333 132.549 73.6792 132.574 73.9219C132.606 74.2321 132.839 74.298 133.214 74.298H139.798C140.221 74.298 140.404 74.1926 140.432 73.9219C140.456 73.6791 140.52 73.0779 140.542 72.8465C140.568 72.5223 140.553 72.3774 140.346 72.2617C140.069 72.1108 139.794 71.9578 139.52 71.8029C139.093 71.5614 138.916 70.9334 138.916 70.3628L138.918 64.6363C138.918 63.1401 139.648 62.3001 140.65 62.1767C141.316 62.0928 142.17 62.5033 142.17 63.6817V71.3961C142.17 73.5926 144.037 74.4354 145.503 74.4354C147.055 74.4354 148.379 73.7223 148.973 72.4816C149.159 72.0888 148.93 71.7901 148.737 71.5778C148.518 71.335 148.32 71.1191 147.962 71.3023C147.606 71.4839 147.235 71.8348 147.023 71.7167C146.866 71.6302 146.849 71.4903 146.849 71.1471L146.849 63.1352ZM147.847 54.2097C147.847 53.9569 147.583 53.8679 147.363 53.8679H146.856V54.5885H147.433C147.679 54.5886 147.847 54.426 147.847 54.2097ZM148.545 55.6689C148.596 56.0098 148.748 56.255 148.832 56.4343C148.483 56.4343 148.352 56.433 148.052 56.433C147.903 56.0988 147.87 55.8737 147.795 55.6424C147.693 55.3055 147.484 55.2062 147.12 55.2062H146.851V56.4329H146.132V53.2945H147.633C147.983 53.2945 148.587 53.5017 148.587 54.1689C148.587 54.5885 148.354 54.8783 148.119 54.9673C148.378 55.1379 148.493 55.3323 148.545 55.6689ZM149.653 54.9738C149.653 53.6875 148.617 52.6502 147.337 52.6502C146.048 52.6502 145.004 53.6875 145.004 54.9738C145.004 56.2562 146.048 57.2986 147.337 57.2986C148.617 57.2986 149.653 56.2562 149.653 54.9738ZM150.247 54.9738C150.247 56.5816 148.94 57.8847 147.337 57.8847C145.726 57.8847 144.416 56.5816 144.416 54.9738C144.416 53.3605 145.726 52.0578 147.337 52.0615C148.94 52.0579 150.247 53.3607 150.247 54.9738Z" fill="#048743"/>
</svg>
