<svg width="70" height="70" viewBox="0 0 70 70" fill="none" xmlns="http://www.w3.org/2000/svg">
<rect width="70" height="70" rx="6" fill="#00427C"/>
<path d="M10 0V70" stroke="white" stroke-opacity="0.4"/>
<path d="M60 0V70" stroke="white" stroke-opacity="0.4"/>
<path d="M35.2114 17.0118C27.5107 16.8971 21.1227 23.0866 21.0021 30.785C20.9684 32.728 21.3409 34.6567 22.0956 36.4474C22.8503 38.2382 23.9706 39.8516 25.3848 41.1844C28.4601 44.0913 30.9963 47.5195 32.7744 51.3596L32.9104 51.6537C33.7348 53.4333 36.2644 53.4333 37.0887 51.6537L37.2248 51.3596C38.9982 47.5423 41.4912 44.103 44.5673 41.23C45.9681 39.9218 47.0845 38.3391 47.847 36.5805C48.6095 34.822 49.0018 32.9253 48.9993 31.0086C48.9993 23.3484 42.8451 17.1251 35.2114 17.0118ZM34.9996 41.3322C29.3072 41.3322 24.6767 36.6995 24.6767 31.0093C24.6767 25.3191 29.3072 20.6871 34.9996 20.6871C40.692 20.6871 45.3225 25.3199 45.3225 31.0093C45.3225 36.6988 40.6912 41.3322 34.9996 41.3322Z" fill="white"/>
<path d="M33.6561 35.7759L33.2207 33.9875C33.1499 33.6967 33.0005 33.4311 32.7888 33.2196C32.5772 33.008 32.3114 32.8588 32.0206 32.7881L30.2322 32.352C28.738 31.988 28.5306 29.9474 29.9219 29.2908L38.6756 25.1595C40.0603 24.5058 41.5008 25.9471 40.8478 27.3318L36.7151 36.0825C36.0599 37.4775 34.0193 37.2708 33.6561 35.7759Z" fill="white"/>
<path d="M70 10L0 10" stroke="white" stroke-opacity="0.4"/>
<path d="M70 60L0 60" stroke="white" stroke-opacity="0.4"/>
</svg>
