<svg width="175" height="93" viewBox="0 0 175 93" fill="none" xmlns="http://www.w3.org/2000/svg">
<rect x="0.769531" width="173.59" height="92.8672" rx="6" fill="white"/>
<path d="M66.9134 41.4352C66.9134 37.1168 70.062 34.1013 75.784 34.1013C79.2753 34.1013 82.1322 35.216 83.68 36.308C83.9015 36.464 84.2967 36.8422 84.0598 37.5457C83.7561 38.3035 83.1992 39.443 82.7996 40.1832C82.5671 40.6145 81.9731 40.5577 81.6689 40.4035C80.5664 39.8449 78.758 38.8997 77.0969 38.7255C76.6762 38.6797 76.2531 38.6614 75.83 38.6707C74.367 38.7033 73.1448 39.2113 72.7143 40.3275C72.63 40.5387 72.5829 40.7629 72.5753 40.9902C72.5351 42.461 74.5821 42.9929 77.0619 43.419C81.6721 44.2087 85.1599 45.5604 85.1599 50.3055C85.1599 54.3351 81.9574 57.9769 75.6826 57.8652C71.546 57.7816 68.6113 56.3839 67.0387 55.0276C66.9851 54.9815 66.3865 54.3718 66.7073 53.6386C67.0745 52.6947 67.6944 51.6129 68.1808 51.0385C68.4513 50.6695 69.165 50.6109 69.536 50.8409C70.8323 51.6464 72.9655 52.938 75.4246 53.0237C75.6187 53.0304 75.8111 53.0315 75.9999 53.0266C78.2119 52.973 79.5502 52.1342 79.5222 50.7214C79.4983 49.4767 77.7444 48.7495 74.9517 48.2232C70.4974 47.3842 66.914 45.916 66.914 41.4352M107.38 47.5841C104.238 47.6252 101.359 48.4838 101.276 50.9385C101.275 52.8864 102.855 53.8432 105.073 53.7179C107.2 53.513 108.822 52.5903 109.537 51.366C109.802 50.9123 109.842 49.2144 109.826 48.4887C109.822 48.3343 109.516 48.0419 109.383 47.9857C108.715 47.7045 108.221 47.6176 107.379 47.5835M96.9279 37.6929C98.3967 36.3786 101.309 34.3327 105.95 34.4405C112.075 34.5679 115.311 37.4394 115.612 44.3084C115.737 47.1411 115.531 55.0424 115.482 57.011C115.475 57.2934 115.379 57.4887 114.998 57.496C113.99 57.5365 111.66 57.5205 110.589 57.5065C110.048 57.4803 109.986 57.2121 109.979 56.9315C109.974 56.7479 109.958 56.2035 109.947 55.7596C109.941 55.5242 109.72 55.5309 109.663 55.5912C108.226 57.1253 105.873 57.8661 103.371 57.8661C99.568 57.8661 95.7765 55.6288 95.7881 51.1982C95.7998 46.6606 99.0172 44.4224 102.552 43.8946C104.815 43.5577 107.366 43.8573 109.298 44.6249C109.422 44.6745 109.674 44.6028 109.676 44.4276C109.684 43.8494 109.656 42.7475 109.545 42.2253C109.261 40.8946 108.151 39.8239 105.819 39.5354C105.339 39.4762 104.855 39.4567 104.371 39.4951C102.518 39.6409 100.287 41.0864 99.3628 41.6275C99.1454 41.7546 98.805 41.6616 98.6949 41.5197C98.1557 40.8232 96.8006 38.7861 96.6939 38.4606C96.5872 38.1359 96.7376 37.8625 96.9273 37.6918L96.9279 37.6929ZM117.632 46.1398C117.596 39.8113 122.005 34.4726 129.165 34.4257C133.633 34.3965 136.878 36.422 137.451 37.3773C137.567 37.6017 137.507 37.7891 137.427 38.015C137.048 38.8135 136.093 40.3563 135.412 41.2306C135.122 41.6031 134.808 41.2839 134.442 41.0406C133.427 40.3645 131.498 39.5377 129.6 39.5377C126.156 39.5383 123.592 41.8994 123.621 46.2435C123.648 50.4122 126.104 52.7031 129.612 52.7862C131.446 52.8322 133.223 51.7781 134.179 50.9146C134.479 50.6526 134.79 50.7837 135.133 51.0519C135.806 51.7399 136.771 52.8022 137.307 53.5334C137.657 53.9397 137.395 54.3372 137.269 54.4969C135.816 56.3349 133.011 57.8818 129.298 57.9028C121.525 57.9573 117.669 52.4915 117.633 46.1406M154.739 57.6175C155.104 57.5901 158.998 57.0527 160.193 56.7791C160.49 56.7115 160.595 56.462 160.429 56.2149C159.762 55.2141 158.007 52.372 156.17 49.8278C154.479 47.4885 152.698 45.431 152.122 44.6395C151.981 44.4471 151.989 44.2577 152.142 44.1085C153.238 43.036 157.823 38.5407 159.546 36.6843C160.214 35.9621 159.813 35.6514 159.246 35.4827C158.151 35.1563 156.38 34.7495 155.373 34.537C154.948 34.4472 154.437 34.4787 154.066 34.8605C152.342 36.4677 147.082 41.747 145.512 43.3251C145.229 43.6099 145.065 43.5466 145.063 43.1398C145.05 40.0972 144.99 27.0708 144.882 24.9282C144.874 24.6449 144.533 24.4299 144.341 24.4197C143.354 24.3681 140.86 24.3532 139.877 24.4109C139.601 24.4421 139.338 24.7228 139.314 24.96C139.087 28.3861 139.41 53.536 139.545 57.0542C139.554 57.3086 139.744 57.5059 139.985 57.5202C140.966 57.577 143.392 57.5732 144.524 57.5519C145.081 57.5519 145.15 57.1603 145.15 57.1603L145.234 50.4116C145.234 50.4116 145.291 50.1114 145.384 50.0123C145.783 49.5825 146.888 48.3987 147.359 47.9411C147.472 47.8312 147.65 47.8391 147.766 47.9944C148.325 48.7493 149.921 51.2031 151.4 53.3947C152.759 55.4079 154.027 57.1947 154.116 57.3208C154.32 57.6123 154.559 57.6239 154.74 57.6184V57.6175H154.739ZM88.5163 57.5942C88.8588 57.6056 91.4569 57.6027 92.608 57.6012C92.9956 57.6088 93.197 57.3153 93.2098 57.0562C93.4544 52.1234 93.3497 28.6381 93.1953 24.9297C93.1824 24.6091 93.0452 24.4887 92.8263 24.4596C91.8384 24.3273 89.0307 24.3582 88.1308 24.5937C87.9548 24.6394 87.851 24.7732 87.8455 24.9451C87.6251 34.5041 87.7738 56.5421 87.8204 56.9595C87.8667 57.3774 88.0853 57.5796 88.5169 57.5942H88.5163Z" fill="#443642"/>
<path d="M18.9826 47.7864C17.3815 47.7986 16.0251 46.8445 15.525 45.3553C15.5065 45.299 15.4892 45.2424 15.4732 45.1854C14.9282 43.2782 15.9849 41.2831 17.8789 40.6443L48.2578 30.4666C48.6185 30.3623 48.9918 30.3077 49.3672 30.3046C51.0109 30.2917 52.4045 31.2669 52.9169 32.7876L52.9623 32.9344C53.5306 34.9208 52.1187 36.6939 50.4269 37.2622C50.4257 37.2631 50.118 37.3671 20.2165 47.5763C19.8191 47.7118 19.4025 47.7827 18.9826 47.7864Z" fill="#70CADB"/>
<path d="M24.0468 62.7266C22.4331 62.7383 21.0722 61.7975 20.5779 60.3296C20.5591 60.2737 20.5416 60.2175 20.5254 60.1608C19.9729 58.231 21.0284 56.2149 22.9289 55.5752L53.3089 45.3042C53.7014 45.1731 54.1068 45.1061 54.5145 45.1023C56.1325 45.09 57.5541 46.0786 58.0557 47.5631L58.1023 47.7176C58.3958 48.7437 58.2224 49.8969 57.639 50.8071C57.2041 51.4838 55.8327 52.0794 55.8327 52.0794L25.3373 62.5066C24.9213 62.6474 24.4859 62.7218 24.0468 62.7272V62.7266Z" fill="#E01765"/>
<path d="M49.3359 62.7916C48.5484 62.7992 47.7788 62.5573 47.1372 62.1006C46.4956 61.644 46.0151 60.996 45.7644 60.2495L35.6255 30.1329L35.5747 29.9639C35.0254 28.0433 36.0818 26.04 37.9753 25.4018C38.3541 25.2745 38.7458 25.208 39.1401 25.2045C39.7259 25.2001 40.2927 25.3322 40.8266 25.5959C41.2664 25.8134 41.6589 26.1157 41.9814 26.4854C42.304 26.8551 42.5502 27.2849 42.7061 27.7502L52.8441 57.8641L52.8735 57.9608C53.443 59.9548 52.3889 61.9593 50.4955 62.5975C50.1215 62.7225 49.7302 62.788 49.3359 62.7916Z" fill="#E8A723"/>
<path d="M34.265 67.8643C33.4771 67.8718 32.7071 67.6297 32.0652 67.1726C31.4234 66.7156 30.9427 66.0671 30.6921 65.3201L20.5558 35.2047C20.3987 34.7401 20.3348 34.2491 20.3678 33.7597C20.4008 33.2704 20.5299 32.7924 20.7479 32.3531C20.9658 31.9137 21.2682 31.5217 21.6379 31.1994C22.0076 30.8771 22.4372 30.6308 22.9021 30.4748C23.2767 30.3496 23.6685 30.2839 24.0635 30.2801C24.851 30.2723 25.6208 30.5141 26.2625 30.9708C26.9042 31.4275 27.3849 32.0756 27.6355 32.8222L37.7721 62.9388C37.9292 63.4036 37.9931 63.8949 37.96 64.3844C37.927 64.874 37.7976 65.3522 37.5794 65.7917C37.3612 66.2311 37.0584 66.6232 36.6884 66.9455C36.3184 67.2677 35.8884 67.5138 35.4232 67.6696C35.0493 67.7949 34.6581 67.8605 34.2639 67.864L34.265 67.8643Z" fill="#3EB890"/>
<path d="M44.3368 56.0094L51.4063 53.5922L49.0953 46.729L42.0176 49.1208L44.3368 56.0094Z" fill="#CC2027"/>
<path d="M29.2906 61.1543L36.3596 58.7374L34.031 51.8218L26.9551 54.2144L29.2906 61.1543Z" fill="#361238"/>
<path d="M39.3029 41.0601L46.3731 38.6462L44.0891 31.8631L37.0059 34.2362L39.3029 41.0601Z" fill="#65863A"/>
<path d="M24.2567 46.1981L31.3268 43.7842L29.0149 36.9146L21.9316 39.2874L24.2567 46.1981Z" fill="#1A937D"/>
</svg>
