<svg width="68" height="68" viewBox="0 0 68 68" fill="none" xmlns="http://www.w3.org/2000/svg">
<path d="M15.504 7.757C15.0765 8.0572 14.4866 7.95472 14.1864 7.5274C13.8856 7.1005 13.9887 6.51056 14.4156 6.20981C17.2336 4.2197 20.3665 2.64717 23.7232 1.5841C26.9663 0.556252 30.42 0.000976562 34.0014 0.000976562C43.3883 0.000976562 51.8886 3.8077 58.0411 9.96084C64.1948 16.1134 68.0009 24.6141 68.0009 34.0004C68.0009 36.347 67.7597 38.647 67.3013 40.8768C66.831 43.1671 66.1336 45.3659 65.2358 47.4491C65.0287 47.9294 64.4723 48.1514 63.992 47.9448C63.5117 47.7389 63.2892 47.1815 63.4957 46.7012C64.3501 44.7209 65.0094 42.6455 65.4506 40.4989C65.8801 38.4103 66.1061 36.2368 66.1061 34.0004C66.1061 25.1368 62.5116 17.1102 56.7015 11.3003C50.8916 5.49037 42.8651 1.8964 34.0014 1.8964C30.6173 1.8964 27.3554 2.41965 24.2933 3.39027C21.1206 4.39528 18.1623 5.87982 15.504 7.757ZM3.80032 11.5768H8.45249C5.84599 14.5445 3.74741 17.969 2.2949 21.7124C0.813841 25.5289 0.00195312 29.6732 0.00195312 34.0004C0.00195312 43.3879 3.80812 51.8876 9.96126 58.0406C16.1144 64.1937 24.6145 67.9999 34.0014 67.9999C36.3474 67.9999 38.6481 67.7591 40.8777 67.3004C43.168 66.8299 45.3674 66.1326 47.4501 65.2348C47.9303 65.0283 48.1528 64.4715 47.9458 63.991C47.7399 63.5108 47.1829 63.2887 46.7026 63.4952C44.7223 64.349 42.647 65.0088 40.5004 65.4495C38.4112 65.8792 36.2377 66.1049 34.0014 66.1049C25.1378 66.1049 17.1113 62.5103 11.3013 56.7004C5.49135 50.8912 1.89668 42.8646 1.89668 34.0004C1.89668 29.9023 2.66179 25.9883 4.05708 22.3938C5.39444 18.9456 7.3102 15.7873 9.68251 13.0371V17.4591C9.68251 17.9824 10.1072 18.4071 10.6299 18.4071C11.1531 18.4071 11.5772 17.9824 11.5772 17.4591V10.6296C11.5772 10.1062 11.1531 9.68209 10.6299 9.68209H3.80032C3.27707 9.68209 2.85296 10.1062 2.85296 10.6296C2.85296 11.1527 3.27707 11.5768 3.80032 11.5768Z" fill="white"/>
<path d="M33.0533 18.9393C33.0533 18.4161 33.4774 17.992 34.0007 17.992C34.5239 17.992 34.948 18.4161 34.948 18.9393V34.0008C34.948 34.2625 34.8418 34.4993 34.6704 34.6707L26.2149 43.1267C25.8448 43.4967 25.2449 43.4967 24.8747 43.1267C24.5052 42.7566 24.5052 42.1567 24.8747 41.7872L33.0532 33.6087L33.0533 18.9393ZM63.0159 47.0089C60.9674 44.9604 58.1373 43.6931 55.012 43.6931C51.8867 43.6931 49.0572 44.9605 47.0087 47.0089C44.9603 49.0573 43.6928 51.8869 43.6928 55.012C43.6928 58.1373 44.9603 60.9674 47.0087 63.0164C49.0572 65.0643 51.8867 66.3318 55.012 66.3318C58.1373 66.3318 60.9674 65.0643 63.0159 63.016C65.0643 60.9676 66.3318 58.1375 66.3318 55.0122C66.3318 51.8869 65.0643 49.0573 63.0159 47.0089ZM56.139 41.8455C56.5394 40.7163 56.8562 39.5474 57.0804 38.349C57.287 37.2463 57.4158 36.1105 57.4611 34.9483H52.4453C51.9221 34.9483 51.498 34.5241 51.498 34.0008C51.498 33.4776 51.9221 33.0533 52.4453 33.0533H57.4611C57.2319 27.2853 54.9207 22.0514 51.2584 18.0833L47.7128 21.6284C47.3427 21.9985 46.7429 21.9985 46.3732 21.6284C46.003 21.2583 46.003 20.6589 46.3732 20.2888L49.9182 16.7432C45.9501 13.0808 40.7163 10.7703 34.9482 10.541V15.5567C34.9482 16.0794 34.5241 16.5041 34.0008 16.5041C33.4776 16.5041 33.0535 16.0794 33.0535 15.5567V10.5412C27.2853 10.7703 22.051 13.081 18.0829 16.7433L21.6284 20.289C21.9985 20.659 21.9985 21.259 21.6284 21.6291C21.2582 21.9986 20.6585 21.9986 20.2888 21.6291L16.7427 18.0835C13.081 22.0516 10.7702 27.2855 10.5412 33.0535H15.5563C16.0796 33.0535 16.5037 33.4783 16.5037 34.001C16.5037 34.5242 16.0796 34.949 15.5563 34.949H10.541C10.7702 40.717 13.0808 45.9509 16.7432 49.919L20.2887 46.3734C20.6589 46.0033 21.2587 46.0033 21.6283 46.3734C21.9984 46.7435 21.9984 47.3434 21.6283 47.713L18.0833 51.2592C22.0514 54.921 27.2852 57.232 33.0533 57.4613V52.4456C33.0533 51.9224 33.4774 51.4983 34.0007 51.4983C34.5239 51.4983 34.948 51.9224 34.948 52.4456V57.4619C36.1103 57.4162 37.2455 57.2873 38.3482 57.0807C39.5473 56.8566 40.7161 56.5397 41.8453 56.1394C41.8138 55.7675 41.7979 55.3924 41.7979 55.0123C41.7979 51.3643 43.2775 48.0605 45.6691 45.6694C48.0601 43.2777 51.3639 41.7982 55.012 41.7982C55.3914 41.7981 55.7678 41.8141 56.139 41.8455ZM60.9244 50.0268C61.2945 49.6573 61.8943 49.6573 62.2646 50.0268C62.6342 50.3969 62.6342 50.9967 62.2646 51.367L53.6327 59.9981C53.2627 60.3682 52.6628 60.3682 52.2932 59.9981L47.7599 55.4659C47.3904 55.0958 47.3904 54.496 47.7599 54.1259C48.13 53.7563 48.7304 53.7563 49.1 54.1259L52.9629 57.9886L60.9244 50.0268Z" fill="white"/>
</svg>
