<svg width="70" height="70" viewBox="0 0 70 70" fill="none" xmlns="http://www.w3.org/2000/svg">
<path d="M26.2515 29.167C18.2101 29.167 11.668 22.6249 11.668 14.5835C11.668 6.54217 18.2101 0 26.2515 0C34.2928 0 40.835 6.54217 40.835 14.5835C40.835 22.6249 34.2928 29.167 26.2515 29.167Z" fill="white"/>
<path d="M13.8543 35.0012C6.21258 35.0012 0 41.2138 0 48.8556V59.064C0 60.2599 0.99168 61.2516 2.18753 61.2516H29.167V51.7723C29.167 46.2889 33.2504 41.768 38.5297 40.9805C39.288 38.7638 40.7172 36.8971 42.5547 35.5554C39.638 34.7212 39.4805 35.0012 13.8543 35.0012Z" fill="white"/>
<path d="M64.8958 46.6673H61.25V44.4797C61.25 41.6651 58.9603 39.3755 56.1457 39.3755H48.854C46.0393 39.3755 43.7497 41.6651 43.7497 44.4797V46.6673H40.1039C38.6688 46.6673 37.3767 47.2652 36.4492 48.2219L52.4998 56.5957L68.5505 48.2219C67.623 47.2652 66.3309 46.6673 64.8958 46.6673ZM48.1248 46.6673V44.4797C48.1248 44.0772 48.4515 43.7505 48.854 43.7505H56.1457C56.5482 43.7505 56.8749 44.0772 56.8749 44.4797V46.6673H48.1248Z" fill="white"/>
<path d="M53.5123 61.0022C52.8794 61.3318 52.1211 61.3318 51.491 61.0022L35 52.3979V64.896C35 67.7107 37.2896 70.0003 40.1042 70.0003H64.8962C67.7108 70.0003 70.0005 67.7107 70.0005 64.896V52.3979L53.5123 61.0022Z" fill="white"/>
</svg>
