<svg width="75" height="72" viewBox="0 0 75 72" fill="none" xmlns="http://www.w3.org/2000/svg">
<path d="M18.9355 30.0656C16.8907 33.469 15.8117 37.3516 15.8117 41.3398V43.5946H0.929562V30.0654H18.9355V30.0656Z" fill="white"/>
<path d="M74.5898 30.0664V43.5956H59.7077V41.3408C59.7077 37.3526 58.6288 33.47 56.5839 30.0665L74.5898 30.0664Z" fill="white"/>
<path d="M30.2543 25.6035C26.4098 23.1271 23.8586 18.8088 23.8586 13.9055C23.8586 6.23818 30.0963 0.000488281 37.7636 0.000488281C45.4309 0.000488281 51.6686 6.23818 51.6686 13.9055C51.6686 18.8087 49.1174 23.1271 45.2729 25.6035C51.1396 28.4147 55.2012 34.4115 55.2012 41.3396V43.5944H20.326V41.3396C20.326 34.4115 24.3875 28.4147 30.2543 25.6035Z" fill="white"/>
<path d="M1.12258 56.4167L9.68845 54.2688L14.3782 46.7856L19.068 54.2688L26.0693 56.0244L33.0707 54.2688L37.7605 46.7856L42.4504 54.2688L49.4517 56.0244L56.453 54.2688L61.1429 46.7856L65.8326 54.2688L74.3984 56.4167L68.731 63.1893L69.3353 71.9997L61.1429 68.7025L52.9503 71.9997L53.5544 63.1893L49.4517 58.2862L45.3487 63.1893L45.953 71.9997L37.7605 68.7025L29.568 71.9997L30.1724 63.1893L26.0693 58.2862L21.9666 63.1893L22.5707 71.9997L14.3782 68.7025L6.18576 71.9997L6.79 63.1893L1.12258 56.4167Z" fill="white"/>
</svg>
