<svg width="65" height="65" viewBox="0 0 65 65" fill="none" xmlns="http://www.w3.org/2000/svg">
<path d="M49.6387 40.2441C49.6387 30.7934 41.9508 23.1055 32.5 23.1055C23.0492 23.1055 15.3613 30.7934 15.3613 40.2441C15.3613 49.6949 23.0492 57.3828 32.5 57.3828C41.9508 57.3828 49.6387 49.6949 49.6387 40.2441ZM32.5 30.7227C35.6502 30.7227 38.2129 33.2853 38.2129 36.4355C38.2129 38.2431 37.3426 39.9633 35.8865 41.0363C34.9584 41.7207 34.4043 42.8142 34.4043 43.9635L30.5957 44.0527C30.5957 41.6091 31.7283 39.3701 33.6251 37.9717C34.1197 37.6072 34.4043 37.0475 34.4043 36.4355C34.4043 35.3849 33.5507 34.5312 32.5 34.5312C31.4493 34.5312 30.5957 35.3849 30.5957 36.4355H26.7871C26.7871 33.2853 29.3498 30.7227 32.5 30.7227ZM30.5957 45.957H34.4043V49.7656H30.5957V45.957Z" fill="white"/>
<path d="M61.1914 27.2648C61.1914 24.9095 61.1914 16.6684 61.1914 17.1387C61.1914 7.6879 53.5035 0 44.0527 0H20.9473C11.4965 0 3.80859 7.6879 3.80859 17.1387C3.80859 17.7469 3.80859 27.8453 3.80859 27.2648C1.59682 28.0536 0 30.1476 0 32.627V47.8613C0 51.0115 2.56268 53.5742 5.71289 53.5742H11.4258V26.9141H7.61719V22.8516H15.2344V17.1387C15.2344 13.9885 17.7971 11.4258 20.9473 11.4258H44.0527C47.2029 11.4258 49.7656 13.9885 49.7656 17.1387V22.8516H57.3828V26.9141H53.5742V53.5742H57.3828V55.4785C57.3828 58.6287 54.8201 61.1914 51.6699 61.1914H30.5957V65H51.6699C56.9198 65 61.1914 60.7284 61.1914 55.4785V53.2234C63.4032 52.4347 65 50.3407 65 47.8613V32.627C65 30.1476 63.4032 28.0536 61.1914 27.2648Z" fill="white"/>
</svg>
