<svg width="174" height="93" viewBox="0 0 174 93" fill="none" xmlns="http://www.w3.org/2000/svg">
<rect x="0.359375" width="173.59" height="92.8672" rx="6" fill="white"/>
<path d="M41.09 22.1453C41.4059 22.2954 41.6059 22.6063 41.8587 22.8528C42.2693 23.2173 42.5748 23.6998 42.975 24.075C43.4699 24.5574 43.7858 25.1685 44.1964 25.7153C44.9125 26.8195 45.5443 27.9988 45.8707 29.2853C46.2077 30.1644 46.2603 31.1186 46.2393 32.062C46.2603 32.9197 46.0287 33.7666 45.6495 34.5385C44.9967 35.7071 43.8174 36.4897 42.5852 36.9078C41.0479 37.283 39.3525 37.3473 37.8678 36.6826C37.3306 36.3825 36.72 36.1788 36.2883 35.7071C35.2879 34.8708 34.7088 33.5093 34.8983 32.1906C35.1931 29.8428 36.5726 27.8273 38.0468 26.0905C38.1837 26.3478 38.0677 26.648 38.1626 26.916C38.289 27.4842 38.4891 28.0846 38.9103 28.492C39.4262 28.0095 39.9739 27.5271 40.4162 26.9696C40.8163 26.3693 41.1426 25.7046 41.2795 24.997C41.3112 24.0964 41.3955 23.153 41.0584 22.2954L41.09 22.1453ZM21.7989 32.8553C24.263 32.8768 26.7375 32.8339 29.2017 32.8768C29.2017 35.3747 29.2226 37.8727 29.191 40.3706C30.9391 40.4028 32.687 40.3813 34.4455 40.3813C34.4666 40.5743 34.4771 40.7673 34.4771 40.9602C34.456 43.0186 34.4876 45.0663 34.456 47.1247C32.6975 47.1461 30.9495 47.1247 29.191 47.1354C29.2226 50.8341 29.1805 54.522 29.2121 58.2207C29.2753 58.5423 29.3174 58.8639 29.3069 59.1963C29.2752 59.4966 29.4542 59.7432 29.5175 60.0218C29.6543 60.665 30.0018 61.244 30.4019 61.7479C30.9917 62.3483 31.7497 62.7664 32.5605 62.9486C33.2976 63.0666 34.0347 63.1308 34.7825 63.0772C34.8245 63.2059 34.8457 63.3345 34.8457 63.4739C34.8351 65.4036 34.8351 67.3334 34.8457 69.2524C34.8457 69.5204 34.793 69.7884 34.7509 70.0456C33.6874 70.0456 32.6239 70.1207 31.5603 70.0456C30.9285 69.9062 30.2547 69.9706 29.6438 69.6918C27.9485 69.2844 26.3268 68.4268 25.1159 67.1296C23.3363 65.3822 22.3781 62.9164 21.9885 60.4721C21.8832 60.204 21.9463 59.8931 21.9041 59.6037C21.7568 59.014 21.8199 58.3921 21.7988 57.7919C21.7884 49.4833 21.7884 41.1639 21.7989 32.8553ZM57.7696 39.8024C58.2117 39.6845 58.6856 39.7702 59.1278 39.6737C60.0545 39.5558 60.9706 39.7059 61.8867 39.7381C62.5291 39.7274 63.1503 39.9203 63.7821 40.049C66.1303 40.6279 68.3522 41.9037 69.9633 43.7691C70.2476 44.2515 70.6793 44.6053 70.953 45.0985C71.6374 46.2027 72.0903 47.4356 72.4798 48.6792C72.7221 49.5905 72.8484 50.5339 72.9643 51.4666C73.017 53.5357 72.9854 55.6156 72.9959 57.6847C72.9854 61.8122 73.0065 65.9397 72.9854 70.0672C70.5214 70.035 68.0679 70.0564 65.6144 70.0457C65.5933 70.035 65.5406 69.9921 65.5196 69.9707C65.5091 64.1923 65.5196 58.4137 65.5196 52.6459C65.5301 51.9383 65.4038 51.2522 65.2563 50.5768C64.9931 49.8907 64.6561 49.2367 64.1928 48.6792C63.9189 48.3469 63.5399 48.1324 63.2345 47.843C62.7606 47.5214 62.2025 47.3713 61.6656 47.2212C61.3813 47.1997 61.097 47.2212 60.8337 47.1247C59.707 47.0496 58.5592 47.1461 57.5062 47.5857C56.7374 47.9609 56.0214 48.4755 55.516 49.1938C54.6842 50.2016 54.4104 51.5738 54.4314 52.8603C54.4314 58.5852 54.442 64.3208 54.4314 70.0457C51.9462 70.0672 49.4613 70.035 46.9762 70.0672C46.934 64.546 46.9762 59.014 46.9551 53.4928C46.9656 52.7852 46.9446 52.0777 46.9972 51.37C47.1341 51.0162 47.0392 50.6304 47.1445 50.2872C47.3341 48.9793 47.8185 47.7357 48.3555 46.5457C48.882 45.5057 49.5138 44.5087 50.3352 43.6832C50.9776 43.0185 51.6409 42.3217 52.4518 41.8607C54.0209 40.7458 55.8742 40.0704 57.7696 39.8024ZM146.011 39.7381C146.927 39.7166 147.833 39.5344 148.749 39.6845C149.244 39.7488 149.75 39.7381 150.244 39.7595C150.339 40.6922 150.265 41.6356 150.286 42.5684V46.3206C150.286 46.5565 150.318 46.8031 150.223 47.0282C149.981 46.8461 149.655 46.9103 149.381 46.8352C148.265 46.7388 147.117 46.7925 146.064 47.2213C144.811 47.6608 143.716 48.5935 143.105 49.805C142.926 50.0301 142.926 50.3518 142.726 50.5662C142.399 51.7669 142.378 53.0212 142.399 54.2541C142.389 59.5287 142.431 64.7926 142.378 70.0673C139.925 70.0351 137.461 70.0673 134.997 70.0458C134.976 70.0244 134.944 69.9815 134.923 69.9601V52.7532C134.891 52.0349 135.049 51.3381 135.039 50.6305C135.207 50.2874 135.165 49.8908 135.271 49.537C135.797 46.8246 137.198 44.2624 139.325 42.5149C139.735 42.0431 140.325 41.818 140.809 41.4428C142.379 40.4671 144.2 39.9954 146.011 39.7381ZM36.8674 40.3706C39.3525 40.4135 41.8376 40.3599 44.3227 40.392C44.3227 50.2016 44.3122 60.0002 44.3227 69.7991C44.3227 69.8956 44.3227 70.0886 44.1753 70.0564H36.8886C36.8253 68.4376 36.878 66.8081 36.8569 65.1892C36.8674 56.9235 36.8569 48.647 36.8674 40.3706ZM114.842 60.2684C115.474 60.0218 116.085 59.7002 116.727 59.4751C117.654 59.1106 118.559 58.6711 119.486 58.3066C121.403 57.4061 123.382 56.6557 125.32 55.8086C125.783 55.5513 126.309 55.4334 126.762 55.1547C127.278 54.951 127.794 54.7686 128.3 54.5328C128.742 54.2647 129.247 54.1575 129.7 53.9218C130.3 53.6751 130.88 53.3965 131.49 53.1713C132.112 52.8174 132.807 52.646 133.428 52.3028C133.596 52.1849 133.87 52.2171 133.975 52.0134C133.796 51.7562 133.891 51.4346 133.796 51.1557C133.659 50.6519 133.523 50.1587 133.407 49.6656C132.933 48.1754 132.249 46.7496 131.322 45.506C130.195 43.8442 128.647 42.5041 126.931 41.5178C125.804 40.821 124.541 40.4243 123.277 40.0812C122.498 39.9848 121.75 39.706 120.96 39.7167C120.244 39.6202 119.507 39.5774 118.802 39.706C117.549 39.7275 116.348 40.0384 115.158 40.3921C113.084 41.1319 111.115 42.2576 109.525 43.8121C109.051 44.2624 108.661 44.7877 108.208 45.2487C107.503 46.1706 106.86 47.1462 106.376 48.1969C105.692 49.7728 105.039 51.4238 104.965 53.1713C104.734 54.0075 104.807 54.8866 104.797 55.7443C104.776 56.2911 104.86 56.8271 104.965 57.3524C104.934 57.9098 105.144 58.4245 105.218 58.9605C105.397 60.0969 105.892 61.1475 106.345 62.1981C107.587 64.7925 109.546 67.0439 111.999 68.5127C113.61 69.5204 115.4 70.2387 117.275 70.5067C118.802 70.7534 120.371 70.7962 121.908 70.5926C122.435 70.6354 122.94 70.3995 123.466 70.3674C125.709 69.8313 127.91 68.8664 129.605 67.2476C130.111 66.8402 130.585 66.3578 130.985 65.8431C131.659 65.1462 132.143 64.2994 132.628 63.4632C133.091 62.5732 133.47 61.6298 133.744 60.6543C133.597 60.5899 133.428 60.6114 133.281 60.6114C130.817 60.6223 128.363 60.6007 125.899 60.6114C125.667 60.6114 125.667 60.9331 125.52 61.0617C125.099 61.6835 124.562 62.2088 123.993 62.702C123.172 63.3025 122.203 63.6241 121.245 63.9134C120.992 63.9457 120.75 63.9349 120.518 64.0315C119.928 64.0742 119.328 64.0529 118.728 64.0422C118.065 63.9135 117.401 63.7635 116.759 63.549C115.769 63.0344 114.8 62.4448 114.053 61.6085C113.863 61.3727 113.558 61.1905 113.495 60.8795C113.663 60.8044 113.821 60.6865 114.011 60.6543C114.316 60.6007 114.547 60.3541 114.842 60.2684ZM111.81 54.8437C111.662 54.4684 111.799 54.0289 111.778 53.6322C111.947 53.0853 111.999 52.5065 112.199 51.9597C112.705 50.7482 113.326 49.5583 114.232 48.6041C114.653 48.2503 115.011 47.8214 115.495 47.5534C115.853 47.3604 116.201 47.146 116.569 46.9745C117.254 46.7709 117.917 46.4493 118.633 46.4493C119.286 46.2885 119.96 46.3742 120.623 46.3848C122.361 46.6315 124.109 47.3926 125.235 48.797C125.351 49.0759 124.962 49.0973 124.804 49.2045C124.119 49.5905 123.351 49.7833 122.666 50.1801C122.361 50.2337 122.098 50.4267 121.803 50.5232C119.623 51.4881 117.401 52.3349 115.242 53.3427C114.084 53.8037 112.937 54.2969 111.81 54.8437ZM103.965 27.2698C101.659 27.2484 99.3526 27.2698 97.0467 27.2591C96.8781 27.2805 96.6781 27.2055 96.5411 27.3341C96.5622 32.3729 96.5411 37.4224 96.5517 42.4611C96.5411 42.6434 96.5833 42.8257 96.5096 42.9972C96.299 42.965 96.1937 42.7613 96.0358 42.6434C94.9722 41.7107 93.7824 40.9174 92.4556 40.4564C91.5605 40.1026 90.6234 39.9203 89.6757 39.7488C88.6017 39.7274 87.5171 39.6952 86.4324 39.7595C86.3165 39.7917 86.2112 39.8238 86.0955 39.8346C83.6841 40.1776 81.4306 41.3247 79.5774 42.9007C78.5455 43.887 77.5135 44.9162 76.7869 46.1598C75.934 47.3927 75.3865 48.8079 74.86 50.2016C74.6178 51.0807 74.3755 51.949 74.2702 52.8496C74.0701 54.2326 74.1543 55.6477 74.1754 57.0414C74.228 57.4059 74.3439 57.749 74.3544 58.1135C74.5439 59.2928 74.8809 60.4506 75.3441 61.5549C75.7337 62.6162 76.3655 63.5811 76.9447 64.546C77.3554 65.082 77.7555 65.6395 78.2504 66.1112C78.9875 66.8509 79.714 67.655 80.6406 68.1696C81.7358 69.0165 83.031 69.5205 84.2946 70.0136C84.7579 70.0993 85.1896 70.3674 85.6635 70.3781C86.0636 70.4102 86.4322 70.6032 86.8324 70.5817C87.043 70.5602 87.2325 70.7103 87.4536 70.6889C88.475 70.721 89.5069 70.721 90.5284 70.6889C90.6968 70.6889 90.8653 70.6138 91.0443 70.6031C91.7497 70.6138 92.4026 70.3351 93.087 70.2386C93.9821 69.9062 94.9404 69.6918 95.7722 69.1988C97.0042 68.6199 98.1204 67.8051 99.1208 66.883C100.384 65.7681 101.406 64.3744 102.164 62.852C102.49 62.1766 102.859 61.5226 103.07 60.7936C103.47 59.7858 103.649 58.7138 103.786 57.6524C104.017 56.7197 103.944 55.7441 103.965 54.7792C103.965 45.6131 103.965 36.4468 103.965 27.2698ZM96.478 56.3017C96.4148 57.4382 95.9937 58.5209 95.4987 59.5394C94.6669 61.1368 93.2664 62.3589 91.6763 63.1308C91.434 63.2595 91.1181 63.2489 90.9498 63.4846C90.6549 63.4846 90.3601 63.4954 90.0758 63.6026C89.1701 63.6241 88.233 63.7099 87.3485 63.4526C86.9694 63.2703 86.5482 63.1954 86.1691 62.9916C85.6953 62.7235 85.1582 62.5413 84.7686 62.1339C84.0315 61.6086 83.463 60.8903 82.9469 60.1506C82.5362 59.4323 82.1256 58.6925 81.936 57.8777C81.7254 57.4489 81.7464 56.9665 81.6307 56.5162C81.5991 55.3692 81.5359 54.1899 81.7991 53.0748C81.9151 52.721 81.9888 52.3458 82.115 51.992C82.4204 51.4237 82.61 50.7913 83.0101 50.2767C83.2207 49.8264 83.5893 49.494 83.8842 49.1081C84.674 48.1862 85.7586 47.5965 86.8536 47.1355C87.2642 47.0391 87.6644 46.8247 88.0962 46.8247C88.9702 46.5995 89.8757 46.7818 90.7393 46.9427C91.8765 47.3608 93.0032 47.9397 93.8877 48.7973C94.2142 49.1082 94.4563 49.4942 94.7828 49.8051C96.1305 51.6489 96.7517 54.0182 96.478 56.3017ZM145.948 66.2935H148.707C148.718 66.5079 148.718 66.7223 148.707 66.9367C148.391 66.9796 148.075 66.926 147.77 66.9689C147.728 67.9337 147.77 68.8879 147.749 69.8528C147.465 69.8313 147.18 69.8313 146.907 69.842C146.875 69.0808 146.885 68.3089 146.896 67.5478C146.896 67.3441 146.938 67.1082 146.759 66.9689C146.485 66.9261 146.211 66.9797 145.938 66.9367C145.927 66.7223 145.927 66.5079 145.948 66.2935ZM149.213 66.3042C149.602 66.2934 149.992 66.2719 150.381 66.3255C150.36 66.6364 150.613 66.8508 150.687 67.1404C150.792 67.5048 150.95 67.848 151.055 68.2125C151.14 68.3733 151.287 68.5127 151.234 68.7164C151.445 67.88 151.771 67.0868 152.098 66.3042C152.466 66.2934 152.845 66.2827 153.224 66.3042C153.245 67.4512 153.224 68.6199 153.224 69.767C152.972 69.7884 152.719 69.7884 152.456 69.767C152.466 68.9629 152.456 68.1589 152.477 67.3655C152.382 67.4513 152.287 67.5263 152.213 67.6335C152.077 68.3626 151.708 69.0273 151.529 69.7563C151.318 69.7885 151.118 69.7885 150.908 69.7671C150.845 69.3597 150.56 69.0274 150.56 68.6092C150.276 68.2554 150.265 67.7516 150.044 67.3549C149.897 67.6444 150.013 67.9873 149.981 68.2983C149.939 68.8022 150.034 69.3168 149.939 69.8207C149.686 69.8207 149.402 69.9065 149.202 69.7242C149.234 68.5877 149.202 67.4513 149.213 66.3042Z" fill="#DF4723" stroke="#DF4723" stroke-width="0.0602391"/>
</svg>
