<svg width="174" height="93" viewBox="0 0 174 93" fill="none" xmlns="http://www.w3.org/2000/svg">
<rect x="0.179688" width="173.59" height="92.8672" rx="6" fill="white"/>
<path d="M147.308 36.5599V52.0414L135.905 36.5481L134.036 36.5453V55.3938H136.132V40.2552L147.306 55.4065L149.409 55.4083V36.5599H147.308ZM123.133 36.1223C117.833 36.1223 114.129 40.176 114.129 45.9791C114.129 51.7913 117.833 55.8441 123.133 55.8441C128.428 55.8441 132.12 51.7913 132.12 45.9791C132.12 40.176 128.429 36.1223 123.133 36.1223ZM123.133 53.8472C119.096 53.8472 116.266 50.6114 116.266 45.9791C116.266 41.3505 119.096 38.1146 123.133 38.1146C127.165 38.1146 129.977 41.3505 129.977 45.9791C129.978 50.6114 127.165 53.8472 123.133 53.8472ZM153.881 53.5643V46.5904H164.257V44.7446H153.881V38.3911H164.963V36.5472H151.767V55.4101H165.092V53.5643H153.881Z" fill="#6B6B6B"/>
<path d="M108.222 55.4255L102.197 47.2453L96.174 55.4255H93.6923L100.939 45.5424L94.3218 36.5598H96.8026L102.197 43.8867L107.585 36.5598H110.064L103.452 45.5424L110.7 55.4255H108.222ZM75.0494 46.2556C74.6752 45.9386 74.2596 45.6738 73.814 45.4687C75.1832 44.7254 76.0811 43.3208 76.0811 41.6915C76.0811 40.4843 75.6362 36.5598 69.9487 36.5598H62.2879V44.6927H59.7353C59.2653 45.314 58.8085 45.9452 58.3652 46.5858H62.2879V55.4237L69.9487 55.4246C74.0988 55.4246 76.6769 53.3168 76.6769 49.9172C76.6769 48.4325 76.1156 47.1689 75.0494 46.2556ZM64.4058 38.5284H69.9487C71.4497 38.5284 73.9614 38.9023 73.9614 41.5269C73.9614 43.511 72.4977 44.6936 69.9487 44.6936H64.4058V38.5284ZM69.9478 53.4569H64.4048V46.5885H69.9478C72.0501 46.5885 74.5637 47.1689 74.5637 49.8762C74.5646 52.9902 71.6735 53.4569 69.9478 53.4569Z" fill="#177D3E"/>
<path d="M86.6409 36.124C81.3427 36.124 77.6383 40.1777 77.6383 45.9808C77.6383 51.793 81.3418 55.844 86.6409 55.844C91.9354 55.844 95.6279 51.793 95.6279 45.9808C95.6279 40.1777 91.9354 36.124 86.6409 36.124ZM86.6409 53.848C82.6035 53.848 79.7761 50.6122 79.7761 45.9808C79.7761 41.3522 82.6035 38.1172 86.6409 38.1172C90.6718 38.1172 93.4847 41.3522 93.4847 45.9808C93.4847 50.6122 90.6718 53.848 86.6409 53.848ZM61.257 55.4237L54.0048 45.5414L60.622 36.5598H58.1431L52.7484 43.8885L47.3584 36.5598H44.8867L51.4994 45.5414L44.248 55.4237H46.7325L52.7521 47.2453L58.7753 55.4237H61.257Z" fill="#177D3E"/>
<path d="M40.9751 46.262C40.9751 54.6423 34.104 61.4351 25.6282 61.4351C17.1523 61.4351 10.2812 54.6423 10.2812 46.262C10.2812 37.8826 17.1523 31.0888 25.6282 31.0888C34.104 31.0888 40.9751 37.8817 40.9751 46.262Z" fill="#666666"/>
<path d="M40.9751 46.262C40.9751 54.6423 34.104 61.4351 25.6282 61.4351C17.1523 61.4351 10.2812 54.6423 10.2812 46.262C10.2812 37.8826 17.1523 31.0888 25.6282 31.0888C34.104 31.0888 40.9751 37.8817 40.9751 46.262Z" fill="url(#paint0_radial_196_375)"/>
<path d="M40.9751 46.262C40.9751 54.6423 34.104 61.4351 25.6282 61.4351C17.1523 61.4351 10.2812 54.6423 10.2812 46.262C10.2812 37.8826 17.1523 31.0888 25.6282 31.0888C34.104 31.0888 40.9751 37.8817 40.9751 46.262Z" fill="url(#paint1_radial_196_375)"/>
<path d="M40.9751 46.262C40.9751 54.6423 34.104 61.4351 25.6282 61.4351C17.1523 61.4351 10.2812 54.6423 10.2812 46.262C10.2812 37.8826 17.1523 31.0888 25.6282 31.0888C34.104 31.0888 40.9751 37.8817 40.9751 46.262Z" fill="url(#paint2_radial_196_375)"/>
<path d="M21.7364 39.6156C20.0416 41.6697 12.9431 50.0182 13.5726 55.663C14.0111 56.2179 14.4941 56.7383 15.0045 57.2277C14.9299 52.9066 20.0007 48.2825 23.9579 44.7919L21.7355 39.6156H21.7364Z" fill="#00A54D"/>
<path d="M21.7314 39.6157C20.0376 41.6698 12.939 50.018 13.5687 55.663C14.0068 56.2183 14.4898 56.7382 15.0003 57.2272C14.9261 52.9069 19.9964 48.2817 23.954 44.7918L21.7314 39.6157Z" fill="url(#paint3_linear_196_375)"/>
<path d="M17.5682 33.357C16.6871 33.89 15.8621 34.5095 15.1055 35.2061C17.5398 35.6687 19.9815 37.8119 21.3205 39.5874C22.4864 41.4102 23.1197 43.0809 23.9427 44.8053C24.5154 44.3159 25.0947 43.8343 25.6805 43.3604L25.6768 35.8708C23.863 34.7436 20.865 33.2604 17.5966 33.357C17.5893 33.3615 17.5746 33.3524 17.5682 33.357Z" fill="#02A74D"/>
<path d="M17.5682 33.357C16.6871 33.89 15.8621 34.5095 15.1055 35.2061C17.5398 35.6687 19.9815 37.8119 21.3205 39.5874C22.4864 41.4102 23.1197 43.0809 23.9427 44.8053C24.5154 44.3159 25.0947 43.8343 25.6805 43.3604L25.6768 35.8708C23.863 34.7436 20.865 33.2604 17.5966 33.357C17.5893 33.3615 17.5746 33.3524 17.5682 33.357Z" fill="url(#paint4_linear_196_375)"/>
<path d="M29.5277 39.622C31.2161 41.678 38.291 50.0337 37.6633 55.6821C37.2266 56.2371 36.7454 56.7583 36.2368 57.2487C36.3105 52.9239 31.257 48.2952 27.3125 44.8019L29.5277 39.622Z" fill="#00A54D"/>
<path d="M29.5281 39.6212C31.2163 41.677 38.2914 50.0332 37.6638 55.6821C37.2247 56.2362 36.7479 56.7595 36.2369 57.2485C36.3109 52.9237 31.2574 48.2954 27.3129 44.8017L29.5281 39.6212Z" fill="url(#paint5_linear_196_375)"/>
<path d="M33.6792 33.3571C34.5574 33.8912 35.3799 34.5111 36.1348 35.2079C33.7085 35.6708 31.274 37.8159 29.9403 39.5929C28.7783 41.4172 28.1461 43.0893 27.3258 44.8162C26.7704 44.3432 26.2058 43.8621 25.5938 43.37L25.5974 35.8731C27.4053 34.745 30.3934 33.2606 33.6509 33.3571C33.6573 33.3617 33.6729 33.3526 33.6792 33.3571Z" fill="#02A74D"/>
<path d="M33.6792 33.3571C34.5574 33.8912 35.3799 34.5111 36.1348 35.2079C33.7085 35.6708 31.274 37.8159 29.9403 39.5929C28.7783 41.4172 28.1461 43.0893 27.3258 44.8162C26.7704 44.3432 26.2058 43.8621 25.5938 43.37L25.5974 35.8731C27.4053 34.745 30.3934 33.2606 33.6509 33.3571C33.6573 33.3617 33.6729 33.3526 33.6792 33.3571Z" fill="url(#paint6_linear_196_375)"/>
<defs>
<radialGradient id="paint0_radial_196_375" cx="0" cy="0" r="1" gradientUnits="userSpaceOnUse" gradientTransform="translate(25.3532 44.6357) rotate(90) scale(22.1092 19.6326)">
<stop stop-color="white"/>
<stop offset="1" stop-color="white" stop-opacity="0"/>
</radialGradient>
<radialGradient id="paint1_radial_196_375" cx="0" cy="0" r="1" gradientUnits="userSpaceOnUse" gradientTransform="translate(25.3532 44.6357) rotate(90) scale(22.1092 19.6326)">
<stop stop-color="white"/>
<stop offset="1" stop-color="white" stop-opacity="0"/>
</radialGradient>
<radialGradient id="paint2_radial_196_375" cx="0" cy="0" r="1" gradientUnits="userSpaceOnUse" gradientTransform="translate(25.3532 44.6357) rotate(90) scale(22.1092 19.6326)">
<stop stop-color="white"/>
<stop offset="1" stop-color="white" stop-opacity="0"/>
</radialGradient>
<linearGradient id="paint3_linear_196_375" x1="20.0755" y1="50.516" x2="16.4786" y2="46.2408" gradientUnits="userSpaceOnUse">
<stop stop-color="#97CA43"/>
<stop offset="1" stop-color="#97CA43" stop-opacity="0"/>
</linearGradient>
<linearGradient id="paint4_linear_196_375" x1="19.922" y1="40.366" x2="23.195" y2="33.0045" gradientUnits="userSpaceOnUse">
<stop stop-color="#97CA43"/>
<stop offset="1" stop-color="#97CA43" stop-opacity="0"/>
</linearGradient>
<linearGradient id="paint5_linear_196_375" x1="31.2328" y1="50.4699" x2="27.6256" y2="46.2168" gradientUnits="userSpaceOnUse">
<stop stop-color="#97CA43"/>
<stop offset="1" stop-color="#97CA43" stop-opacity="0"/>
</linearGradient>
<linearGradient id="paint6_linear_196_375" x1="31.3559" y1="39.9908" x2="34.1756" y2="35.375" gradientUnits="userSpaceOnUse">
<stop stop-color="#97CA43"/>
<stop offset="1" stop-color="#97CA43" stop-opacity="0"/>
</linearGradient>
</defs>
</svg>
